<svg width="1440" height="2095" viewBox="0 0 1440 2095" fill="none" xmlns="http://www.w3.org/2000/svg">
<rect width="1440" height="2095" fill="white"/>
<path d="M720 0C720 398.4 720 501.333 720 503M720 503C714.255 504.115 711.332 506.021 710.5 512.5M720 503C726.237 504.406 728.25 506.683 729.5 512.5M710.5 512.5C711.358 518.094 712.822 521.02 720 522M710.5 512.5H687.5M679.5 512.5H687.5M720 522C720 526 720 588 720 588M720 522C725.687 520.843 728.281 519.453 729.5 512.5M720 588H673.5M720 588H765M720 588V2094.5M729.5 512.5H752.5M760 512.5H752.5M687.5 512.5V522M687.5 522L674 553C678.126 558.478 682.976 560.529 687.5 560.5C692.024 560.471 695.498 559.168 701 553L687.5 522ZM752.5 512.5V522M752.5 522L739.5 553C743.772 558.047 746.387 559.993 752.5 560.5C759.205 560.323 762.072 558.45 766 553L752.5 522Z" stroke="black" stroke-width="5"/>
</svg>
