<svg xmlns="http://www.w3.org/2000/svg" xmlns:xlink="http://www.w3.org/1999/xlink" width="500" zoomAndPan="magnify" viewBox="0 0 375 374.999991" height="500" preserveAspectRatio="xMidYMid meet" version="1.0"><defs><g/><clipPath id="30418c3d39"><path d="M 115.984375 59.21875 L 259.234375 59.21875 L 259.234375 167.21875 L 115.984375 167.21875 Z M 115.984375 59.21875 " clip-rule="nonzero"/></clipPath><clipPath id="7040bf7202"><path d="M 114.375 58.050781 L 140 58.050781 L 140 96 L 114.375 96 Z M 114.375 58.050781 " clip-rule="nonzero"/></clipPath><clipPath id="39eceeefa4"><path d="M 129.75 60.675781 C 135.601562 58.574219 137.175781 58.425781 138.074219 58.875 C 138.824219 59.25 139.351562 59.925781 139.648438 60.824219 C 140.101562 62.175781 139.949219 65.398438 139.273438 66.675781 C 138.824219 67.5 138.074219 67.949219 137.324219 68.25 C 136.574219 68.550781 135.449219 68.699219 134.699219 68.324219 C 133.800781 67.949219 133.125 65.699219 132.449219 65.699219 C 131.851562 65.699219 131.476562 66.675781 130.875 67.574219 C 129.675781 69.300781 126.375 75.898438 126.523438 75.976562 C 126.601562 76.050781 127.648438 74.101562 127.949219 74.175781 C 128.476562 74.324219 128.398438 78.226562 128.476562 79.875 C 128.550781 81.074219 128.625 81.898438 128.476562 83.023438 C 128.25 84.300781 127.949219 85.800781 127.125 86.925781 C 126.226562 88.199219 123.898438 90.300781 123.074219 90 C 122.25 89.625 122.625 84.675781 122.175781 84.601562 C 121.875 84.523438 121.199219 85.726562 120.976562 86.625 C 120.601562 87.976562 121.351562 91.800781 120.898438 91.949219 C 120.601562 92.023438 119.625 91.125 119.476562 90.148438 C 119.023438 87.226562 124.125 73.875 126.523438 71.25 C 127.5 70.199219 128.625 69.75 129.449219 69.824219 C 130.050781 69.824219 130.574219 70.273438 130.875 70.726562 C 131.25 71.324219 131.699219 72.449219 131.476562 73.199219 C 131.25 73.875 130.425781 74.773438 129.75 75 C 129.074219 75.226562 127.875 75 127.273438 74.625 C 126.75 74.324219 126.449219 73.800781 126.300781 73.199219 C 126.148438 72.523438 126.449219 71.324219 126.824219 70.726562 C 127.199219 70.273438 127.800781 69.898438 128.324219 69.824219 C 128.851562 69.75 129.523438 69.824219 129.976562 70.050781 C 130.5 70.273438 130.949219 70.726562 131.25 71.175781 C 131.550781 71.625 131.625 72.226562 131.550781 72.898438 C 131.398438 73.949219 130.199219 75 129.523438 76.800781 C 128.25 80.101562 126.601562 88.949219 125.476562 91.648438 C 125.023438 92.773438 124.800781 93.226562 124.199219 93.898438 C 123.601562 94.574219 122.925781 95.25 121.949219 95.550781 C 120.601562 95.925781 117.75 95.925781 116.625 95.101562 C 115.726562 94.425781 115.351562 93.226562 115.125 91.875 C 114.75 89.699219 114.976562 84.75 115.726562 82.949219 C 116.101562 81.976562 116.550781 81.523438 117.300781 81 C 118.199219 80.398438 119.476562 79.800781 120.75 79.648438 C 122.324219 79.5 124.800781 79.875 126.074219 80.699219 C 127.050781 81.375 127.648438 82.425781 128.023438 83.625 C 128.550781 85.125 128.625 87.523438 128.398438 89.25 C 128.25 90.75 127.800781 92.398438 127.125 93.300781 C 126.601562 94.050781 125.773438 94.425781 124.949219 94.726562 C 124.125 95.023438 123.074219 95.25 122.25 94.949219 C 121.351562 94.648438 120.375 93.675781 119.851562 92.851562 C 119.398438 92.101562 119.25 91.050781 119.175781 90.148438 C 119.101562 89.25 119.175781 88.425781 119.550781 87.375 C 120.074219 85.875 122.175781 84.148438 122.625 82.199219 C 123.148438 79.949219 121.949219 76.574219 122.101562 74.550781 C 122.175781 73.273438 122.175781 72.148438 122.773438 71.324219 C 123.449219 70.5 125.023438 69.976562 126.074219 69.75 C 127.050781 69.601562 127.949219 69.675781 128.851562 69.898438 C 129.824219 70.199219 131.101562 70.648438 131.699219 71.476562 C 132.375 72.375 132.675781 73.875 132.449219 75.226562 C 132.226562 76.949219 130.949219 79.726562 129.449219 80.699219 C 127.949219 81.675781 124.875 81.675781 123.375 81.148438 C 122.25 80.773438 121.273438 79.648438 120.824219 78.75 C 120.449219 77.925781 120.375 77.25 120.601562 76.125 C 121.050781 73.574219 124.273438 66.976562 126.300781 64.273438 C 127.648438 62.476562 129.074219 61.199219 130.5 60.523438 C 131.625 60 132.824219 60 133.800781 60.074219 C 134.625 60.148438 135.523438 60.148438 136.050781 60.675781 C 136.726562 61.273438 137.476562 63.148438 137.175781 63.675781 C 136.875 64.199219 135.074219 64.5 134.625 64.125 C 134.25 63.824219 134.25 61.949219 134.625 61.726562 C 135 61.5 137.023438 62.699219 136.949219 63.148438 C 136.875 63.898438 131.625 65.550781 130.199219 65.101562 C 129.300781 64.800781 128.550781 63.75 128.476562 63 C 128.398438 62.25 129.75 60.675781 129.75 60.675781 " clip-rule="nonzero"/></clipPath><clipPath id="48e7336c44"><path d="M 228 57 L 263 57 L 263 97 L 228 97 Z M 228 57 " clip-rule="nonzero"/></clipPath><clipPath id="e9de8e6f88"><path d="M 230.324219 60.449219 C 237.976562 58.5 239.398438 58.726562 240.449219 59.550781 C 241.574219 60.449219 241.726562 63.074219 242.773438 64.050781 C 243.601562 64.800781 244.726562 64.648438 245.699219 65.324219 C 246.898438 66.226562 248.398438 67.949219 249.300781 69.148438 C 249.976562 70.050781 250.425781 70.574219 250.726562 71.851562 C 251.324219 74.101562 250.351562 79.273438 251.101562 82.050781 C 251.699219 84.226562 253.351562 85.574219 253.949219 87.375 C 254.476562 89.101562 255 92.476562 254.699219 92.625 C 254.476562 92.699219 253.425781 91.574219 253.199219 90.601562 C 252.75 88.949219 254.25 84.976562 254.023438 83.101562 C 253.875 81.898438 253.574219 81.601562 253.050781 80.324219 C 251.773438 77.324219 247.875 68.699219 245.324219 65.773438 C 243.898438 64.050781 241.050781 63.375 241.050781 62.550781 C 241.050781 62.023438 242.324219 61.273438 242.925781 61.273438 C 243.601562 61.273438 244.125 62.023438 244.949219 62.925781 C 247.125 65.398438 252.976562 74.25 254.925781 78.074219 C 255.976562 80.25 256.574219 81.75 256.875 83.398438 C 257.175781 84.824219 257.324219 86.398438 256.949219 87.449219 C 256.648438 88.351562 255.824219 89.25 255.148438 89.550781 C 254.550781 89.851562 253.648438 89.851562 253.050781 89.550781 C 252.300781 89.175781 251.398438 88.199219 251.101562 86.773438 C 250.425781 83.699219 252.675781 73.5 254.25 70.726562 C 254.925781 69.523438 255.675781 68.851562 256.574219 68.550781 C 257.476562 68.25 259.050781 68.625 259.726562 69.148438 C 260.25 69.523438 260.550781 70.351562 260.550781 70.949219 C 260.550781 71.550781 259.949219 72.824219 259.949219 72.824219 C 259.949219 72.824219 260.398438 70.648438 260.550781 70.648438 C 260.773438 70.648438 260.625 73.800781 260.925781 75.375 C 261.226562 77.023438 262.648438 79.199219 262.5 80.324219 C 262.425781 81 261.898438 81.523438 261.449219 81.824219 C 261 82.125 260.324219 82.425781 259.726562 82.273438 C 258.898438 82.125 257.398438 81 257.101562 80.175781 C 256.875 79.425781 257.25 78.226562 257.773438 77.625 C 258.300781 77.023438 259.5 76.574219 260.25 76.726562 C 261 76.875 261.976562 77.699219 262.351562 78.300781 C 262.648438 78.824219 262.800781 79.5 262.574219 80.101562 C 262.273438 80.851562 260.925781 82.199219 260.023438 82.273438 C 259.125 82.351562 257.925781 81.375 257.175781 80.476562 C 256.273438 79.351562 255.601562 77.398438 255.375 75.601562 C 255.074219 73.574219 255 69.898438 255.976562 68.925781 C 256.648438 68.25 258.449219 68.25 259.199219 68.699219 C 259.949219 69.148438 260.476562 70.648438 260.476562 71.625 C 260.476562 72.601562 259.574219 73.199219 259.125 74.550781 C 258.300781 77.324219 258.074219 85.050781 256.949219 87.449219 C 256.425781 88.574219 255.824219 89.25 255.148438 89.550781 C 254.550781 89.851562 253.648438 89.851562 253.050781 89.550781 C 252.300781 89.25 251.476562 88.351562 251.175781 87.523438 C 250.800781 86.550781 251.851562 85.5 251.398438 83.851562 C 250.273438 79.425781 238.050781 65.398438 237.601562 61.648438 C 237.449219 60.523438 237.824219 59.925781 238.351562 59.25 C 238.949219 58.5 240.226562 57.75 241.199219 57.523438 C 242.101562 57.375 242.851562 57.449219 243.898438 57.898438 C 245.699219 58.648438 248.398438 60.300781 250.5 62.925781 C 253.949219 67.199219 258.824219 77.25 259.949219 83.101562 C 260.773438 87.300781 260.324219 92.398438 259.273438 94.351562 C 258.75 95.324219 257.925781 95.625 257.023438 96 C 255.976562 96.449219 254.398438 96.601562 253.273438 96.523438 C 252.226562 96.449219 251.175781 96.449219 250.425781 95.851562 C 249.601562 95.175781 249 93.675781 248.773438 92.625 C 248.625 91.726562 249.226562 91.050781 249 90.074219 C 248.699219 88.648438 246.675781 87.300781 246.074219 85.273438 C 245.175781 82.273438 246.824219 76.050781 245.699219 73.351562 C 244.949219 71.550781 243.523438 70.726562 242.25 69.601562 C 240.824219 68.398438 238.425781 67.5 237.523438 66.300781 C 236.851562 65.476562 237.300781 63.976562 236.550781 63.601562 C 235.5 63.074219 232.050781 65.25 230.699219 65.175781 C 230.023438 65.101562 229.5 64.949219 229.125 64.5 C 228.675781 63.976562 228.375 62.550781 228.601562 61.875 C 228.824219 61.273438 230.324219 60.449219 230.324219 60.449219 " clip-rule="nonzero"/></clipPath><clipPath id="936e29a43a"><path d="M 241.800781 68.25 L 258 68.25 L 258 82.5 L 241.800781 82.5 Z M 241.800781 68.25 " clip-rule="nonzero"/></clipPath><clipPath id="04b9abcfdf"><path d="M 246.300781 74.476562 C 247.125 75.75 246.449219 73.574219 246.824219 73.199219 C 247.273438 72.824219 248.851562 73.199219 249.523438 73.648438 C 250.199219 74.023438 250.199219 75.074219 250.949219 75.523438 C 252.074219 76.273438 255.074219 75.898438 256.199219 76.648438 C 256.949219 77.175781 257.476562 78.148438 257.550781 78.898438 C 257.625 79.726562 257.101562 80.925781 256.425781 81.375 C 255.675781 81.898438 253.726562 81.898438 252.976562 81.375 C 252.300781 80.925781 251.699219 79.726562 251.773438 78.898438 C 251.925781 78 253.125 76.574219 254.023438 76.273438 C 254.773438 76.050781 256.050781 76.425781 256.648438 76.949219 C 257.25 77.476562 257.699219 78.75 257.550781 79.5 C 257.398438 80.324219 256.648438 81.375 255.898438 81.675781 C 255.148438 81.976562 253.875 81.898438 253.199219 81.523438 C 252.523438 81.148438 251.773438 80.101562 251.773438 79.273438 C 251.773438 78.375 252.976562 76.726562 253.726562 76.351562 C 254.25 76.050781 255 76.125 255.601562 76.351562 C 256.199219 76.574219 256.875 77.023438 257.175781 77.625 C 257.476562 78.375 257.398438 80.101562 256.949219 80.851562 C 256.574219 81.449219 255.898438 81.75 255.148438 81.898438 C 253.949219 82.199219 251.851562 82.199219 250.273438 81.523438 C 248.25 80.699219 245.324219 78.300781 244.199219 76.5 C 243.449219 75.226562 243.226562 73.726562 243.300781 72.523438 C 243.375 71.550781 243.75 70.5 244.425781 69.898438 C 245.25 69.226562 246.976562 68.925781 248.023438 69 C 248.925781 69.074219 249.898438 69.449219 250.5 69.976562 C 251.101562 70.5 251.550781 71.101562 251.773438 72 C 252.226562 73.574219 252.148438 77.25 251.699219 78.824219 C 251.398438 79.800781 251.101562 80.476562 250.425781 81 C 249.601562 81.675781 247.726562 82.125 246.601562 81.976562 C 245.625 81.824219 244.875 81.300781 244.125 80.476562 C 243.148438 79.351562 241.875 76.726562 241.800781 75.523438 C 241.800781 74.851562 242.023438 74.324219 242.398438 73.949219 C 242.773438 73.574219 243.375 73.199219 243.976562 73.199219 C 244.648438 73.199219 246.300781 74.550781 246.300781 74.550781 " clip-rule="nonzero"/></clipPath></defs><rect x="-37.5" width="450" fill="#ffffff" y="-37.499999" height="449.999989" fill-opacity="1"/><rect x="-37.5" width="450" fill="#ffffff" y="-37.499999" height="449.999989" fill-opacity="1"/><rect x="-37.5" width="450" fill="#173358" y="-37.499999" height="449.999989" fill-opacity="1"/><g fill="#ffffff" fill-opacity="1"><g transform="translate(61.685489, 211.662365)"><g/></g></g><g fill="#ffffff" fill-opacity="1"><g transform="translate(70.693568, 211.662365)"><g><path d="M 9.09375 -25.3125 C 9.90625 -25.3125 10.609375 -25.234375 11.203125 -25.078125 C 11.804688 -24.921875 12.421875 -24.710938 13.046875 -24.453125 C 13.359375 -24.328125 13.664062 -24.21875 13.96875 -24.125 C 14.269531 -24.03125 14.539062 -23.984375 14.78125 -23.984375 C 15.363281 -23.984375 15.820312 -24.425781 16.15625 -25.3125 L 16.84375 -25.3125 L 16.84375 -17.09375 L 16.15625 -17.09375 C 16.03125 -18.363281 15.648438 -19.519531 15.015625 -20.5625 C 14.378906 -21.613281 13.585938 -22.441406 12.640625 -23.046875 C 11.691406 -23.648438 10.675781 -23.953125 9.59375 -23.953125 C 8.414062 -23.953125 7.40625 -23.59375 6.5625 -22.875 C 5.71875 -22.164062 5.296875 -21.304688 5.296875 -20.296875 C 5.296875 -19.117188 5.875 -18.097656 7.03125 -17.234375 C 7.851562 -16.640625 8.992188 -15.921875 10.453125 -15.078125 C 11.753906 -14.285156 12.835938 -13.597656 13.703125 -13.015625 C 14.566406 -12.441406 15.375 -11.816406 16.125 -11.140625 C 16.789062 -10.492188 17.320312 -9.75 17.71875 -8.90625 C 18.113281 -8.0625 18.3125 -7.195312 18.3125 -6.3125 C 18.3125 -5.082031 17.972656 -3.9375 17.296875 -2.875 C 16.628906 -1.820312 15.710938 -0.988281 14.546875 -0.375 C 13.378906 0.238281 12.097656 0.546875 10.703125 0.546875 C 9.816406 0.546875 9.03125 0.46875 8.34375 0.3125 C 7.664062 0.15625 6.953125 -0.0546875 6.203125 -0.328125 C 5.390625 -0.609375 4.773438 -0.75 4.359375 -0.75 C 3.710938 -0.75 3.222656 -0.316406 2.890625 0.546875 L 2.234375 0.546875 L 2.234375 -7.796875 L 2.890625 -7.796875 C 3.296875 -5.648438 4.101562 -3.953125 5.3125 -2.703125 C 6.53125 -1.453125 8.101562 -0.828125 10.03125 -0.828125 C 11.394531 -0.828125 12.519531 -1.195312 13.40625 -1.9375 C 14.300781 -2.6875 14.75 -3.628906 14.75 -4.765625 C 14.75 -5.335938 14.640625 -5.863281 14.421875 -6.34375 C 14.203125 -6.820312 13.84375 -7.335938 13.34375 -7.890625 C 12.882812 -8.378906 12.234375 -8.90625 11.390625 -9.46875 C 10.554688 -10.03125 9.441406 -10.734375 8.046875 -11.578125 C 6.867188 -12.296875 5.96875 -12.863281 5.34375 -13.28125 C 4.71875 -13.707031 4.25 -14.078125 3.9375 -14.390625 C 2.707031 -15.640625 2.09375 -17.140625 2.09375 -18.890625 C 2.09375 -20.097656 2.398438 -21.1875 3.015625 -22.15625 C 3.628906 -23.132812 4.460938 -23.90625 5.515625 -24.46875 C 6.578125 -25.03125 7.769531 -25.3125 9.09375 -25.3125 Z M 9.09375 -25.3125 "/></g></g></g><g fill="#ffffff" fill-opacity="1"><g transform="translate(90.592183, 211.662365)"><g><path d="M 4.140625 -4.796875 L 13.375 -25.859375 L 14.03125 -25.859375 L 23.765625 -3.421875 C 24.128906 -2.609375 24.472656 -2.003906 24.796875 -1.609375 C 25.117188 -1.210938 25.457031 -0.953125 25.8125 -0.828125 C 26.175781 -0.710938 26.671875 -0.65625 27.296875 -0.65625 L 27.296875 0 L 17.125 0 L 17.125 -0.65625 C 17.988281 -0.65625 18.632812 -0.8125 19.0625 -1.125 C 19.5 -1.4375 19.71875 -1.851562 19.71875 -2.375 C 19.71875 -2.832031 19.5625 -3.398438 19.25 -4.078125 L 17.375 -8.328125 L 7.390625 -8.328125 L 5.34375 -3.609375 C 5.101562 -3.128906 4.984375 -2.695312 4.984375 -2.3125 C 4.984375 -1.207031 5.867188 -0.65625 7.640625 -0.65625 L 7.640625 0 L 0.5 0 L 0.5 -0.65625 C 1.101562 -0.71875 1.59375 -0.890625 1.96875 -1.171875 C 2.34375 -1.453125 2.675781 -1.851562 2.96875 -2.375 C 3.269531 -2.90625 3.660156 -3.710938 4.140625 -4.796875 Z M 16.8125 -9.703125 L 12.40625 -19.765625 L 8 -9.703125 Z M 16.8125 -9.703125 "/></g></g></g><g fill="#ffffff" fill-opacity="1"><g transform="translate(118.385352, 211.662365)"><g><path d="M 17.921875 -5.84375 L 26.609375 -24.78125 L 34.15625 -24.78125 L 34.15625 -24.125 L 33.90625 -24.125 C 32.75 -24.125 31.894531 -23.921875 31.34375 -23.515625 C 30.789062 -23.109375 30.515625 -22.328125 30.515625 -21.171875 L 30.515625 -3.5625 C 30.515625 -2.507812 30.773438 -1.757812 31.296875 -1.3125 C 31.828125 -0.875 32.71875 -0.65625 33.96875 -0.65625 L 34.15625 -0.65625 L 34.15625 0 L 22.96875 0 L 22.96875 -0.65625 L 23.296875 -0.65625 C 24.421875 -0.65625 25.253906 -0.875 25.796875 -1.3125 C 26.335938 -1.757812 26.609375 -2.535156 26.609375 -3.640625 L 26.609375 -20.765625 L 26.546875 -20.765625 L 17.015625 0 L 16.375 0 L 6.859375 -20.765625 L 6.78125 -20.765625 L 6.78125 -3.609375 C 6.78125 -2.453125 7.039062 -1.675781 7.5625 -1.28125 C 8.09375 -0.882812 8.984375 -0.675781 10.234375 -0.65625 L 10.234375 0 L 1.546875 0 L 1.546875 -0.65625 L 1.765625 -0.65625 C 2.921875 -0.65625 3.773438 -0.863281 4.328125 -1.28125 C 4.878906 -1.695312 5.15625 -2.484375 5.15625 -3.640625 L 5.15625 -20.5625 C 5.15625 -21.6875 4.863281 -22.53125 4.28125 -23.09375 C 3.707031 -23.664062 2.796875 -24.007812 1.546875 -24.125 L 1.546875 -24.78125 L 9.125 -24.78125 Z M 17.921875 -5.84375 "/></g></g></g><g fill="#ffffff" fill-opacity="1"><g transform="translate(154.073091, 211.662365)"><g><path d="M 21.125 -17.84375 C 21.125 -16.570312 20.773438 -15.410156 20.078125 -14.359375 C 19.390625 -13.316406 18.4375 -12.492188 17.21875 -11.890625 C 16.007812 -11.296875 14.644531 -11 13.125 -11 C 11.445312 -11 9.847656 -11.273438 8.328125 -11.828125 L 8.328125 -3.640625 C 8.328125 -2.441406 8.617188 -1.644531 9.203125 -1.25 C 9.796875 -0.851562 10.742188 -0.65625 12.046875 -0.65625 L 12.046875 0 L 0.90625 0 L 0.90625 -0.65625 C 2.226562 -0.65625 3.144531 -0.875 3.65625 -1.3125 C 4.175781 -1.757812 4.4375 -2.535156 4.4375 -3.640625 L 4.4375 -21.171875 C 4.4375 -22.296875 4.160156 -23.066406 3.609375 -23.484375 C 3.054688 -23.910156 2.226562 -24.125 1.125 -24.125 L 0.90625 -24.125 L 0.90625 -24.78125 L 11.75 -24.78125 C 13.3125 -24.78125 14.804688 -24.535156 16.234375 -24.046875 C 17.671875 -23.566406 18.84375 -22.800781 19.75 -21.75 C 20.664062 -20.707031 21.125 -19.40625 21.125 -17.84375 Z M 8.328125 -22.9375 L 8.328125 -13.09375 C 9.460938 -12.613281 10.484375 -12.375 11.390625 -12.375 C 12.953125 -12.375 14.210938 -12.859375 15.171875 -13.828125 C 16.140625 -14.804688 16.625 -16.097656 16.625 -17.703125 C 16.625 -19.390625 16.117188 -20.757812 15.109375 -21.8125 C 14.097656 -22.875 12.703125 -23.40625 10.921875 -23.40625 C 10.128906 -23.40625 9.265625 -23.25 8.328125 -22.9375 Z M 8.328125 -22.9375 "/></g></g></g><g fill="#ffffff" fill-opacity="1"><g transform="translate(175.846212, 211.662365)"><g><path d="M 4.140625 -4.796875 L 13.375 -25.859375 L 14.03125 -25.859375 L 23.765625 -3.421875 C 24.128906 -2.609375 24.472656 -2.003906 24.796875 -1.609375 C 25.117188 -1.210938 25.457031 -0.953125 25.8125 -0.828125 C 26.175781 -0.710938 26.671875 -0.65625 27.296875 -0.65625 L 27.296875 0 L 17.125 0 L 17.125 -0.65625 C 17.988281 -0.65625 18.632812 -0.8125 19.0625 -1.125 C 19.5 -1.4375 19.71875 -1.851562 19.71875 -2.375 C 19.71875 -2.832031 19.5625 -3.398438 19.25 -4.078125 L 17.375 -8.328125 L 7.390625 -8.328125 L 5.34375 -3.609375 C 5.101562 -3.128906 4.984375 -2.695312 4.984375 -2.3125 C 4.984375 -1.207031 5.867188 -0.65625 7.640625 -0.65625 L 7.640625 0 L 0.5 0 L 0.5 -0.65625 C 1.101562 -0.71875 1.59375 -0.890625 1.96875 -1.171875 C 2.34375 -1.453125 2.675781 -1.851562 2.96875 -2.375 C 3.269531 -2.90625 3.660156 -3.710938 4.140625 -4.796875 Z M 16.8125 -9.703125 L 12.40625 -19.765625 L 8 -9.703125 Z M 16.8125 -9.703125 "/></g></g></g><g fill="#ffffff" fill-opacity="1"><g transform="translate(203.639381, 211.662365)"><g><path d="M 13.890625 -25.3125 C 16.171875 -25.3125 18.269531 -24.734375 20.1875 -23.578125 C 22.113281 -22.429688 23.640625 -20.863281 24.765625 -18.875 C 25.898438 -16.894531 26.46875 -14.726562 26.46875 -12.375 C 26.46875 -10.039062 25.898438 -7.878906 24.765625 -5.890625 C 23.640625 -3.910156 22.113281 -2.34375 20.1875 -1.1875 C 18.269531 -0.03125 16.171875 0.546875 13.890625 0.546875 C 11.597656 0.546875 9.488281 -0.03125 7.5625 -1.1875 C 5.644531 -2.34375 4.125 -3.910156 3 -5.890625 C 1.882812 -7.878906 1.328125 -10.039062 1.328125 -12.375 C 1.328125 -14.726562 1.882812 -16.894531 3 -18.875 C 4.125 -20.863281 5.644531 -22.429688 7.5625 -23.578125 C 9.488281 -24.734375 11.597656 -25.3125 13.890625 -25.3125 Z M 5.84375 -12.375 C 5.84375 -10.0625 6.171875 -8.03125 6.828125 -6.28125 C 7.492188 -4.539062 8.429688 -3.195312 9.640625 -2.25 C 10.859375 -1.300781 12.273438 -0.828125 13.890625 -0.828125 C 15.492188 -0.828125 16.910156 -1.300781 18.140625 -2.25 C 19.367188 -3.195312 20.3125 -4.539062 20.96875 -6.28125 C 21.632812 -8.03125 21.96875 -10.0625 21.96875 -12.375 C 21.96875 -14.632812 21.640625 -16.640625 20.984375 -18.390625 C 20.335938 -20.148438 19.40625 -21.515625 18.1875 -22.484375 C 16.976562 -23.460938 15.53125 -23.953125 13.84375 -23.953125 C 12.1875 -23.953125 10.753906 -23.457031 9.546875 -22.46875 C 8.347656 -21.476562 7.429688 -20.101562 6.796875 -18.34375 C 6.160156 -16.59375 5.84375 -14.601562 5.84375 -12.375 Z M 5.84375 -12.375 "/></g></g></g><g fill="#ffffff" fill-opacity="1"><g transform="translate(231.432551, 211.662365)"><g><path d="M 12.625 -24.125 C 11.375 -24.125 10.476562 -23.925781 9.9375 -23.53125 C 9.394531 -23.132812 9.125 -22.332031 9.125 -21.125 L 9.125 -3.03125 C 9.125 -2.519531 9.222656 -2.15625 9.421875 -1.9375 C 9.628906 -1.726562 9.972656 -1.625 10.453125 -1.625 L 15.828125 -1.625 C 17.078125 -1.625 18.109375 -1.785156 18.921875 -2.109375 C 19.742188 -2.429688 20.445312 -2.957031 21.03125 -3.6875 C 21.625 -4.425781 22.195312 -5.46875 22.75 -6.8125 L 23.375 -6.59375 L 21.28125 0 L 1.515625 0 L 1.515625 -0.65625 L 1.765625 -0.65625 C 2.992188 -0.65625 3.878906 -0.867188 4.421875 -1.296875 C 4.960938 -1.734375 5.234375 -2.515625 5.234375 -3.640625 L 5.234375 -21.171875 C 5.234375 -22.273438 4.945312 -23.039062 4.375 -23.46875 C 3.8125 -23.90625 2.929688 -24.125 1.734375 -24.125 L 1.515625 -24.125 L 1.515625 -24.78125 L 12.625 -24.78125 Z M 12.625 -24.125 "/></g></g></g><g fill="#ffffff" fill-opacity="1"><g transform="translate(255.476705, 211.662365)"><g><path d="M 21.234375 -19.296875 L 20.625 -19.296875 C 20.382812 -20.660156 19.9375 -21.671875 19.28125 -22.328125 C 18.632812 -22.992188 17.738281 -23.328125 16.59375 -23.328125 L 8.765625 -23.328125 L 8.765625 -13.78125 L 15.1875 -13.78125 C 16.332031 -13.78125 17.144531 -14.066406 17.625 -14.640625 C 18.113281 -15.210938 18.367188 -16.125 18.390625 -17.375 L 19.046875 -17.375 L 19.046875 -8.65625 L 18.390625 -8.65625 C 18.390625 -9.90625 18.148438 -10.828125 17.671875 -11.421875 C 17.191406 -12.023438 16.335938 -12.328125 15.109375 -12.328125 L 8.765625 -12.328125 L 8.765625 -3.28125 C 8.765625 -2.050781 9.242188 -1.4375 10.203125 -1.4375 L 16.546875 -1.4375 C 17.867188 -1.4375 19.035156 -1.835938 20.046875 -2.640625 C 21.054688 -3.453125 21.875 -4.628906 22.5 -6.171875 L 23.265625 -6.171875 L 21.234375 0 L 1.296875 0 L 1.296875 -0.65625 C 2.546875 -0.65625 3.453125 -0.863281 4.015625 -1.28125 C 4.585938 -1.695312 4.875 -2.484375 4.875 -3.640625 L 4.875 -21.390625 C 4.875 -22.347656 4.585938 -23.039062 4.015625 -23.46875 C 3.453125 -23.90625 2.546875 -24.125 1.296875 -24.125 L 1.296875 -24.78125 L 20.953125 -24.78125 Z M 21.234375 -19.296875 "/></g></g></g><g fill="#ffffff" fill-opacity="1"><g transform="translate(279.520859, 211.662365)"><g><path d="M 9.09375 -25.3125 C 9.90625 -25.3125 10.609375 -25.234375 11.203125 -25.078125 C 11.804688 -24.921875 12.421875 -24.710938 13.046875 -24.453125 C 13.359375 -24.328125 13.664062 -24.21875 13.96875 -24.125 C 14.269531 -24.03125 14.539062 -23.984375 14.78125 -23.984375 C 15.363281 -23.984375 15.820312 -24.425781 16.15625 -25.3125 L 16.84375 -25.3125 L 16.84375 -17.09375 L 16.15625 -17.09375 C 16.03125 -18.363281 15.648438 -19.519531 15.015625 -20.5625 C 14.378906 -21.613281 13.585938 -22.441406 12.640625 -23.046875 C 11.691406 -23.648438 10.675781 -23.953125 9.59375 -23.953125 C 8.414062 -23.953125 7.40625 -23.59375 6.5625 -22.875 C 5.71875 -22.164062 5.296875 -21.304688 5.296875 -20.296875 C 5.296875 -19.117188 5.875 -18.097656 7.03125 -17.234375 C 7.851562 -16.640625 8.992188 -15.921875 10.453125 -15.078125 C 11.753906 -14.285156 12.835938 -13.597656 13.703125 -13.015625 C 14.566406 -12.441406 15.375 -11.816406 16.125 -11.140625 C 16.789062 -10.492188 17.320312 -9.75 17.71875 -8.90625 C 18.113281 -8.0625 18.3125 -7.195312 18.3125 -6.3125 C 18.3125 -5.082031 17.972656 -3.9375 17.296875 -2.875 C 16.628906 -1.820312 15.710938 -0.988281 14.546875 -0.375 C 13.378906 0.238281 12.097656 0.546875 10.703125 0.546875 C 9.816406 0.546875 9.03125 0.46875 8.34375 0.3125 C 7.664062 0.15625 6.953125 -0.0546875 6.203125 -0.328125 C 5.390625 -0.609375 4.773438 -0.75 4.359375 -0.75 C 3.710938 -0.75 3.222656 -0.316406 2.890625 0.546875 L 2.234375 0.546875 L 2.234375 -7.796875 L 2.890625 -7.796875 C 3.296875 -5.648438 4.101562 -3.953125 5.3125 -2.703125 C 6.53125 -1.453125 8.101562 -0.828125 10.03125 -0.828125 C 11.394531 -0.828125 12.519531 -1.195312 13.40625 -1.9375 C 14.300781 -2.6875 14.75 -3.628906 14.75 -4.765625 C 14.75 -5.335938 14.640625 -5.863281 14.421875 -6.34375 C 14.203125 -6.820312 13.84375 -7.335938 13.34375 -7.890625 C 12.882812 -8.378906 12.234375 -8.90625 11.390625 -9.46875 C 10.554688 -10.03125 9.441406 -10.734375 8.046875 -11.578125 C 6.867188 -12.296875 5.96875 -12.863281 5.34375 -13.28125 C 4.71875 -13.707031 4.25 -14.078125 3.9375 -14.390625 C 2.707031 -15.640625 2.09375 -17.140625 2.09375 -18.890625 C 2.09375 -20.097656 2.398438 -21.1875 3.015625 -22.15625 C 3.628906 -23.132812 4.460938 -23.90625 5.515625 -24.46875 C 6.578125 -25.03125 7.769531 -25.3125 9.09375 -25.3125 Z M 9.09375 -25.3125 "/></g></g></g><g fill="#ffffff" fill-opacity="1"><g transform="translate(299.419474, 211.662365)"><g><path d="M 12.65625 -24.125 C 11.644531 -24.125 10.875 -24.03125 10.34375 -23.84375 C 9.820312 -23.664062 9.453125 -23.34375 9.234375 -22.875 C 9.015625 -22.40625 8.90625 -21.726562 8.90625 -20.84375 L 8.90625 -3.609375 C 8.90625 -2.785156 9.035156 -2.164062 9.296875 -1.75 C 9.566406 -1.332031 9.960938 -1.050781 10.484375 -0.90625 C 11.015625 -0.757812 11.738281 -0.675781 12.65625 -0.65625 L 12.65625 0 L 1.265625 0 L 1.265625 -0.65625 C 2.222656 -0.675781 2.957031 -0.757812 3.46875 -0.90625 C 3.988281 -1.050781 4.375 -1.332031 4.625 -1.75 C 4.882812 -2.164062 5.015625 -2.796875 5.015625 -3.640625 L 5.015625 -20.84375 C 5.015625 -21.726562 4.898438 -22.398438 4.671875 -22.859375 C 4.441406 -23.316406 4.066406 -23.632812 3.546875 -23.8125 C 3.035156 -24 2.273438 -24.101562 1.265625 -24.125 L 1.265625 -24.78125 L 12.65625 -24.78125 Z M 12.65625 -24.125 "/></g></g></g><g clip-path="url(#30418c3d39)"><path fill="#ffffff" d="M 253.640625 82.621094 L 251.910156 86.117188 L 248.042969 86.675781 L 250.839844 89.398438 L 250.179688 93.238281 L 253.640625 91.421875 L 257.097656 93.238281 L 256.4375 89.398438 L 259.238281 86.675781 L 255.367188 86.117188 Z M 239.347656 59.242188 L 238.332031 61.292969 L 236.066406 61.621094 L 237.707031 63.21875 L 237.320312 65.46875 L 239.347656 64.40625 L 241.378906 65.46875 L 240.992188 63.21875 L 242.632812 61.621094 L 240.363281 61.292969 Z M 248.636719 68.875 L 247.347656 71.480469 L 244.464844 71.898438 L 246.550781 73.925781 L 246.058594 76.785156 L 248.636719 75.4375 L 251.214844 76.785156 L 250.722656 73.925781 L 252.808594 71.898438 L 249.925781 71.480469 Z M 119.851562 86.117188 L 115.984375 86.675781 L 118.78125 89.398438 L 118.121094 93.238281 L 121.582031 91.421875 L 125.039062 93.238281 L 124.378906 89.398438 L 127.179688 86.675781 L 123.308594 86.117188 L 121.582031 82.621094 Z M 134.855469 61.292969 L 132.585938 61.621094 L 134.230469 63.21875 L 133.839844 65.46875 L 135.871094 64.40625 L 137.902344 65.46875 L 137.511719 63.21875 L 139.15625 61.621094 L 136.886719 61.292969 L 135.871094 59.242188 Z M 125.292969 71.480469 L 122.414062 71.898438 L 124.496094 73.925781 L 124.003906 76.785156 L 126.582031 75.4375 L 129.160156 76.785156 L 128.667969 73.925781 L 130.753906 71.898438 L 127.871094 71.480469 L 126.582031 68.875 Z M 156.261719 96.984375 L 168.304688 96.984375 L 168.304688 92.554688 L 156.261719 92.554688 Z M 219.242188 96.984375 L 219.242188 92.554688 L 207.199219 92.554688 L 207.199219 96.984375 Z M 225.953125 74.449219 L 149.546875 74.449219 L 149.546875 78.875 L 225.953125 78.875 Z M 219.242188 83.5 L 156.261719 83.5 L 156.261719 87.929688 L 219.242188 87.929688 Z M 190.464844 154.148438 L 190.464844 92.703125 L 186.023438 92.703125 L 186.023438 154.148438 Z M 256.046875 99.109375 C 256.046875 114.726562 250.605469 129.984375 240.730469 142.074219 C 230.996094 153.992188 217.386719 162.355469 202.414062 165.621094 C 200.867188 165.957031 199.328125 166.238281 197.839844 166.453125 C 194.523438 166.945312 191.125 167.195312 187.75 167.195312 C 184.375 167.195312 180.976562 166.945312 177.652344 166.453125 C 176.175781 166.238281 174.636719 165.957031 173.085938 165.621094 C 158.113281 162.355469 144.503906 153.992188 134.769531 142.074219 C 124.894531 129.984375 119.453125 114.726562 119.453125 99.109375 L 123.207031 99.109375 C 123.207031 128.988281 144.328125 155.316406 173.488281 161.875 L 173.488281 92.703125 L 177.929688 92.703125 L 177.929688 162.710938 C 178.019531 162.722656 178.109375 162.738281 178.199219 162.75 C 184.492188 163.683594 191.011719 163.683594 197.292969 162.753906 C 197.386719 162.738281 197.480469 162.722656 197.570312 162.710938 L 197.570312 92.703125 L 202.015625 92.703125 L 202.015625 161.875 C 231.171875 155.316406 252.292969 128.988281 252.292969 99.109375 L 256.046875 99.109375 " fill-opacity="1" fill-rule="nonzero"/></g><g fill="#ffffff" fill-opacity="1"><g transform="translate(113.287497, 250.728044)"><g><path d="M 6.5625 -5.953125 L 6.375 -5.953125 C 6.300781 -6.378906 6.160156 -6.691406 5.953125 -6.890625 C 5.753906 -7.097656 5.476562 -7.203125 5.125 -7.203125 L 2.703125 -7.203125 L 2.703125 -4.25 L 4.6875 -4.25 C 5.039062 -4.25 5.289062 -4.335938 5.4375 -4.515625 C 5.59375 -4.703125 5.675781 -4.988281 5.6875 -5.375 L 5.875 -5.375 L 5.875 -2.671875 L 5.6875 -2.671875 C 5.6875 -3.054688 5.609375 -3.34375 5.453125 -3.53125 C 5.304688 -3.71875 5.046875 -3.8125 4.671875 -3.8125 L 2.703125 -3.8125 L 2.703125 -1.015625 C 2.703125 -0.640625 2.851562 -0.453125 3.15625 -0.453125 L 5.109375 -0.453125 C 5.515625 -0.453125 5.875 -0.570312 6.1875 -0.8125 C 6.5 -1.0625 6.753906 -1.425781 6.953125 -1.90625 L 7.1875 -1.90625 L 6.5625 0 L 0.40625 0 L 0.40625 -0.203125 C 0.789062 -0.203125 1.066406 -0.265625 1.234375 -0.390625 C 1.410156 -0.523438 1.5 -0.769531 1.5 -1.125 L 1.5 -6.609375 C 1.5 -6.898438 1.410156 -7.113281 1.234375 -7.25 C 1.066406 -7.382812 0.789062 -7.453125 0.40625 -7.453125 L 0.40625 -7.65625 L 6.46875 -7.65625 Z M 6.5625 -5.953125 "/></g></g></g><g fill="#ffffff" fill-opacity="1"><g transform="translate(122.900001, 250.728044)"><g><path d="M 2.8125 -7.828125 C 3.0625 -7.828125 3.28125 -7.800781 3.46875 -7.75 C 3.65625 -7.695312 3.84375 -7.628906 4.03125 -7.546875 C 4.125 -7.515625 4.21875 -7.484375 4.3125 -7.453125 C 4.40625 -7.421875 4.488281 -7.40625 4.5625 -7.40625 C 4.738281 -7.40625 4.878906 -7.546875 4.984375 -7.828125 L 5.203125 -7.828125 L 5.203125 -5.28125 L 4.984375 -5.28125 C 4.953125 -5.675781 4.835938 -6.035156 4.640625 -6.359375 C 4.441406 -6.679688 4.195312 -6.929688 3.90625 -7.109375 C 3.613281 -7.296875 3.300781 -7.390625 2.96875 -7.390625 C 2.601562 -7.390625 2.289062 -7.28125 2.03125 -7.0625 C 1.769531 -6.84375 1.640625 -6.578125 1.640625 -6.265625 C 1.640625 -5.898438 1.816406 -5.585938 2.171875 -5.328125 C 2.421875 -5.140625 2.773438 -4.914062 3.234375 -4.65625 C 3.628906 -4.414062 3.960938 -4.203125 4.234375 -4.015625 C 4.503906 -3.835938 4.753906 -3.644531 4.984375 -3.4375 C 5.191406 -3.238281 5.351562 -3.007812 5.46875 -2.75 C 5.59375 -2.488281 5.65625 -2.222656 5.65625 -1.953125 C 5.65625 -1.566406 5.550781 -1.210938 5.34375 -0.890625 C 5.132812 -0.566406 4.847656 -0.304688 4.484375 -0.109375 C 4.128906 0.078125 3.738281 0.171875 3.3125 0.171875 C 3.03125 0.171875 2.785156 0.144531 2.578125 0.09375 C 2.367188 0.0390625 2.148438 -0.0195312 1.921875 -0.09375 C 1.660156 -0.1875 1.46875 -0.234375 1.34375 -0.234375 C 1.144531 -0.234375 0.992188 -0.0976562 0.890625 0.171875 L 0.6875 0.171875 L 0.6875 -2.40625 L 0.890625 -2.40625 C 1.015625 -1.75 1.265625 -1.222656 1.640625 -0.828125 C 2.015625 -0.441406 2.5 -0.25 3.09375 -0.25 C 3.519531 -0.25 3.867188 -0.363281 4.140625 -0.59375 C 4.421875 -0.832031 4.5625 -1.125 4.5625 -1.46875 C 4.5625 -1.644531 4.523438 -1.804688 4.453125 -1.953125 C 4.390625 -2.109375 4.28125 -2.269531 4.125 -2.4375 C 3.976562 -2.582031 3.773438 -2.742188 3.515625 -2.921875 C 3.253906 -3.097656 2.910156 -3.316406 2.484375 -3.578125 C 2.117188 -3.796875 1.835938 -3.96875 1.640625 -4.09375 C 1.453125 -4.226562 1.3125 -4.34375 1.21875 -4.4375 C 0.832031 -4.832031 0.640625 -5.300781 0.640625 -5.84375 C 0.640625 -6.207031 0.734375 -6.539062 0.921875 -6.84375 C 1.117188 -7.144531 1.378906 -7.382812 1.703125 -7.5625 C 2.023438 -7.738281 2.394531 -7.828125 2.8125 -7.828125 Z M 2.8125 -7.828125 "/></g></g></g><g fill="#ffffff" fill-opacity="1"><g transform="translate(131.231582, 250.728044)"><g><path d="M 7.15625 -5.921875 L 6.9375 -5.921875 C 6.832031 -6.742188 6.382812 -7.15625 5.59375 -7.15625 L 4.3125 -7.15625 L 4.3125 -1.046875 C 4.3125 -0.710938 4.40625 -0.488281 4.59375 -0.375 C 4.789062 -0.257812 5.066406 -0.203125 5.421875 -0.203125 L 5.421875 0 L 2 0 L 2 -0.203125 C 2.382812 -0.203125 2.664062 -0.269531 2.84375 -0.40625 C 3.019531 -0.539062 3.109375 -0.78125 3.109375 -1.125 L 3.109375 -7.15625 L 1.75 -7.15625 C 1.394531 -7.15625 1.101562 -7.050781 0.875 -6.84375 C 0.644531 -6.644531 0.515625 -6.335938 0.484375 -5.921875 L 0.28125 -5.921875 L 0.328125 -7.65625 L 7.09375 -7.65625 Z M 7.15625 -5.921875 "/></g></g></g><g fill="#ffffff" fill-opacity="1"><g transform="translate(140.844085, 250.728044)"><g><path d="M 3.78125 -7.453125 C 3.519531 -7.441406 3.316406 -7.410156 3.171875 -7.359375 C 3.035156 -7.316406 2.925781 -7.226562 2.84375 -7.09375 C 2.757812 -6.96875 2.71875 -6.78125 2.71875 -6.53125 L 2.71875 -2.3125 C 2.71875 -1.738281 2.890625 -1.257812 3.234375 -0.875 C 3.585938 -0.5 4.113281 -0.3125 4.8125 -0.3125 C 5.632812 -0.3125 6.253906 -0.515625 6.671875 -0.921875 C 7.085938 -1.328125 7.296875 -1.9375 7.296875 -2.75 L 7.296875 -6.546875 C 7.296875 -6.878906 7.207031 -7.113281 7.03125 -7.25 C 6.863281 -7.382812 6.609375 -7.453125 6.265625 -7.453125 L 6.15625 -7.453125 L 6.15625 -7.65625 L 8.953125 -7.65625 L 8.953125 -7.453125 C 8.671875 -7.453125 8.445312 -7.425781 8.28125 -7.375 C 8.113281 -7.332031 7.988281 -7.242188 7.90625 -7.109375 C 7.820312 -6.984375 7.78125 -6.789062 7.78125 -6.53125 L 7.78125 -2.625 C 7.78125 -2.125 7.664062 -1.660156 7.4375 -1.234375 C 7.21875 -0.816406 6.878906 -0.476562 6.421875 -0.21875 C 5.960938 0.0390625 5.394531 0.171875 4.71875 0.171875 C 3.9375 0.171875 3.304688 0.0390625 2.828125 -0.21875 C 2.347656 -0.476562 2.007812 -0.804688 1.8125 -1.203125 C 1.613281 -1.597656 1.515625 -2.023438 1.515625 -2.484375 L 1.515625 -6.25 C 1.515625 -6.570312 1.484375 -6.816406 1.421875 -6.984375 C 1.367188 -7.148438 1.265625 -7.269531 1.109375 -7.34375 C 0.953125 -7.414062 0.726562 -7.453125 0.4375 -7.453125 L 0.359375 -7.453125 L 0.359375 -7.65625 L 3.78125 -7.65625 Z M 3.78125 -7.453125 "/></g></g></g><g fill="#ffffff" fill-opacity="1"><g transform="translate(152.19419, 250.728044)"><g><path d="M 8.71875 -3.828125 C 8.71875 -3.066406 8.515625 -2.394531 8.109375 -1.8125 C 7.710938 -1.238281 7.175781 -0.789062 6.5 -0.46875 C 5.832031 -0.15625 5.097656 0 4.296875 0 L 0.359375 0 L 0.359375 -0.203125 C 0.753906 -0.210938 1.039062 -0.28125 1.21875 -0.40625 C 1.394531 -0.53125 1.484375 -0.769531 1.484375 -1.125 L 1.484375 -6.546875 C 1.484375 -6.898438 1.390625 -7.140625 1.203125 -7.265625 C 1.015625 -7.390625 0.734375 -7.453125 0.359375 -7.453125 L 0.359375 -7.65625 L 4.625 -7.65625 C 5.476562 -7.65625 6.210938 -7.472656 6.828125 -7.109375 C 7.453125 -6.742188 7.921875 -6.269531 8.234375 -5.6875 C 8.554688 -5.101562 8.71875 -4.484375 8.71875 -3.828125 Z M 2.6875 -7.046875 L 2.6875 -0.5625 C 3.050781 -0.445312 3.453125 -0.390625 3.890625 -0.390625 C 4.566406 -0.390625 5.164062 -0.523438 5.6875 -0.796875 C 6.207031 -1.078125 6.609375 -1.472656 6.890625 -1.984375 C 7.171875 -2.503906 7.3125 -3.097656 7.3125 -3.765625 C 7.3125 -4.429688 7.171875 -5.023438 6.890625 -5.546875 C 6.609375 -6.078125 6.207031 -6.488281 5.6875 -6.78125 C 5.175781 -7.082031 4.585938 -7.234375 3.921875 -7.234375 C 3.472656 -7.234375 3.0625 -7.171875 2.6875 -7.046875 Z M 2.6875 -7.046875 "/></g></g></g><g fill="#ffffff" fill-opacity="1"><g transform="translate(163.544296, 250.728044)"><g><path d="M 3.90625 -7.453125 C 3.59375 -7.453125 3.351562 -7.421875 3.1875 -7.359375 C 3.03125 -7.304688 2.914062 -7.207031 2.84375 -7.0625 C 2.78125 -6.914062 2.75 -6.707031 2.75 -6.4375 L 2.75 -1.109375 C 2.75 -0.859375 2.789062 -0.664062 2.875 -0.53125 C 2.957031 -0.40625 3.078125 -0.320312 3.234375 -0.28125 C 3.398438 -0.238281 3.625 -0.210938 3.90625 -0.203125 L 3.90625 0 L 0.390625 0 L 0.390625 -0.203125 C 0.679688 -0.210938 0.90625 -0.238281 1.0625 -0.28125 C 1.226562 -0.320312 1.347656 -0.40625 1.421875 -0.53125 C 1.503906 -0.664062 1.546875 -0.863281 1.546875 -1.125 L 1.546875 -6.4375 C 1.546875 -6.707031 1.507812 -6.914062 1.4375 -7.0625 C 1.375 -7.207031 1.257812 -7.304688 1.09375 -7.359375 C 0.9375 -7.410156 0.703125 -7.441406 0.390625 -7.453125 L 0.390625 -7.65625 L 3.90625 -7.65625 Z M 3.90625 -7.453125 "/></g></g></g><g fill="#ffffff" fill-opacity="1"><g transform="translate(170.015737, 250.728044)"><g><path d="M 4.296875 -7.828125 C 4.992188 -7.828125 5.640625 -7.644531 6.234375 -7.28125 C 6.828125 -6.925781 7.296875 -6.441406 7.640625 -5.828125 C 7.992188 -5.210938 8.171875 -4.546875 8.171875 -3.828125 C 8.171875 -3.097656 7.992188 -2.425781 7.640625 -1.8125 C 7.296875 -1.207031 6.828125 -0.722656 6.234375 -0.359375 C 5.640625 -0.00390625 4.992188 0.171875 4.296875 0.171875 C 3.585938 0.171875 2.9375 -0.00390625 2.34375 -0.359375 C 1.75 -0.722656 1.273438 -1.207031 0.921875 -1.8125 C 0.578125 -2.425781 0.40625 -3.097656 0.40625 -3.828125 C 0.40625 -4.546875 0.578125 -5.210938 0.921875 -5.828125 C 1.273438 -6.441406 1.75 -6.925781 2.34375 -7.28125 C 2.9375 -7.644531 3.585938 -7.828125 4.296875 -7.828125 Z M 1.8125 -3.828125 C 1.8125 -3.109375 1.910156 -2.476562 2.109375 -1.9375 C 2.316406 -1.40625 2.609375 -0.988281 2.984375 -0.6875 C 3.359375 -0.394531 3.796875 -0.25 4.296875 -0.25 C 4.785156 -0.25 5.21875 -0.394531 5.59375 -0.6875 C 5.976562 -0.988281 6.269531 -1.40625 6.46875 -1.9375 C 6.675781 -2.476562 6.78125 -3.109375 6.78125 -3.828125 C 6.78125 -4.523438 6.679688 -5.144531 6.484375 -5.6875 C 6.285156 -6.226562 6 -6.644531 5.625 -6.9375 C 5.25 -7.238281 4.800781 -7.390625 4.28125 -7.390625 C 3.769531 -7.390625 3.328125 -7.238281 2.953125 -6.9375 C 2.578125 -6.632812 2.289062 -6.210938 2.09375 -5.671875 C 1.90625 -5.128906 1.8125 -4.515625 1.8125 -3.828125 Z M 1.8125 -3.828125 "/></g></g></g><g fill="#ffffff" fill-opacity="1"><g transform="translate(180.786638, 250.728044)"><g/></g></g><g fill="#ffffff" fill-opacity="1"><g transform="translate(185.754381, 250.728044)"><g><path d="M 4.640625 -7.453125 C 4.253906 -7.453125 3.976562 -7.390625 3.8125 -7.265625 C 3.644531 -7.140625 3.5625 -6.898438 3.5625 -6.546875 L 3.5625 -2.3125 C 3.5625 -1.613281 3.390625 -1.023438 3.046875 -0.546875 C 2.710938 -0.0664062 2.203125 0.171875 1.515625 0.171875 C 1.140625 0.171875 0.832031 0.09375 0.59375 -0.0625 C 0.363281 -0.226562 0.25 -0.429688 0.25 -0.671875 C 0.25 -0.828125 0.300781 -0.957031 0.40625 -1.0625 C 0.507812 -1.175781 0.640625 -1.234375 0.796875 -1.234375 C 0.960938 -1.234375 1.085938 -1.1875 1.171875 -1.09375 C 1.265625 -1 1.367188 -0.859375 1.484375 -0.671875 C 1.554688 -0.523438 1.628906 -0.414062 1.703125 -0.34375 C 1.773438 -0.269531 1.859375 -0.234375 1.953125 -0.234375 C 2.085938 -0.234375 2.1875 -0.304688 2.25 -0.453125 C 2.320312 -0.597656 2.359375 -0.890625 2.359375 -1.328125 L 2.359375 -6.546875 C 2.359375 -6.898438 2.265625 -7.140625 2.078125 -7.265625 C 1.898438 -7.390625 1.613281 -7.453125 1.21875 -7.453125 L 1.21875 -7.65625 L 4.640625 -7.65625 Z M 4.640625 -7.453125 "/></g></g></g><g fill="#ffffff" fill-opacity="1"><g transform="translate(192.81617, 250.728044)"><g><path d="M 3.78125 -7.453125 C 3.519531 -7.441406 3.316406 -7.410156 3.171875 -7.359375 C 3.035156 -7.316406 2.925781 -7.226562 2.84375 -7.09375 C 2.757812 -6.96875 2.71875 -6.78125 2.71875 -6.53125 L 2.71875 -2.3125 C 2.71875 -1.738281 2.890625 -1.257812 3.234375 -0.875 C 3.585938 -0.5 4.113281 -0.3125 4.8125 -0.3125 C 5.632812 -0.3125 6.253906 -0.515625 6.671875 -0.921875 C 7.085938 -1.328125 7.296875 -1.9375 7.296875 -2.75 L 7.296875 -6.546875 C 7.296875 -6.878906 7.207031 -7.113281 7.03125 -7.25 C 6.863281 -7.382812 6.609375 -7.453125 6.265625 -7.453125 L 6.15625 -7.453125 L 6.15625 -7.65625 L 8.953125 -7.65625 L 8.953125 -7.453125 C 8.671875 -7.453125 8.445312 -7.425781 8.28125 -7.375 C 8.113281 -7.332031 7.988281 -7.242188 7.90625 -7.109375 C 7.820312 -6.984375 7.78125 -6.789062 7.78125 -6.53125 L 7.78125 -2.625 C 7.78125 -2.125 7.664062 -1.660156 7.4375 -1.234375 C 7.21875 -0.816406 6.878906 -0.476562 6.421875 -0.21875 C 5.960938 0.0390625 5.394531 0.171875 4.71875 0.171875 C 3.9375 0.171875 3.304688 0.0390625 2.828125 -0.21875 C 2.347656 -0.476562 2.007812 -0.804688 1.8125 -1.203125 C 1.613281 -1.597656 1.515625 -2.023438 1.515625 -2.484375 L 1.515625 -6.25 C 1.515625 -6.570312 1.484375 -6.816406 1.421875 -6.984375 C 1.367188 -7.148438 1.265625 -7.269531 1.109375 -7.34375 C 0.953125 -7.414062 0.726562 -7.453125 0.4375 -7.453125 L 0.359375 -7.453125 L 0.359375 -7.65625 L 3.78125 -7.65625 Z M 3.78125 -7.453125 "/></g></g></g><g fill="#ffffff" fill-opacity="1"><g transform="translate(204.166272, 250.728044)"><g><path d="M 6.59375 -5.65625 C 6.59375 -5.1875 6.429688 -4.78125 6.109375 -4.4375 C 5.796875 -4.101562 5.3125 -3.859375 4.65625 -3.703125 L 6.421875 -1.5 C 6.640625 -1.238281 6.820312 -1.023438 6.96875 -0.859375 C 7.125 -0.703125 7.3125 -0.554688 7.53125 -0.421875 C 7.75 -0.296875 7.988281 -0.222656 8.25 -0.203125 L 8.25 0 L 6.265625 0 L 3.375 -3.59375 L 2.640625 -3.59375 L 2.640625 -1.109375 C 2.640625 -0.773438 2.722656 -0.539062 2.890625 -0.40625 C 3.054688 -0.269531 3.316406 -0.203125 3.671875 -0.203125 L 3.71875 -0.203125 L 3.71875 0 L 0.375 0 L 0.375 -0.203125 C 0.726562 -0.203125 0.992188 -0.265625 1.171875 -0.390625 C 1.347656 -0.515625 1.4375 -0.738281 1.4375 -1.0625 L 1.4375 -6.609375 C 1.4375 -6.898438 1.347656 -7.113281 1.171875 -7.25 C 0.992188 -7.382812 0.726562 -7.453125 0.375 -7.453125 L 0.375 -7.65625 L 3.953125 -7.65625 C 4.679688 -7.65625 5.300781 -7.488281 5.8125 -7.15625 C 6.332031 -6.832031 6.59375 -6.332031 6.59375 -5.65625 Z M 2.640625 -7.0625 L 2.640625 -3.96875 L 2.921875 -3.96875 C 3.671875 -3.96875 4.238281 -4.113281 4.625 -4.40625 C 5.007812 -4.695312 5.203125 -5.101562 5.203125 -5.625 C 5.203125 -6.082031 5.054688 -6.46875 4.765625 -6.78125 C 4.472656 -7.101562 4.054688 -7.265625 3.515625 -7.265625 C 3.234375 -7.265625 2.941406 -7.195312 2.640625 -7.0625 Z M 2.640625 -7.0625 "/></g></g></g><g fill="#ffffff" fill-opacity="1"><g transform="translate(214.937169, 250.728044)"><g><path d="M 3.90625 -7.453125 C 3.59375 -7.453125 3.351562 -7.421875 3.1875 -7.359375 C 3.03125 -7.304688 2.914062 -7.207031 2.84375 -7.0625 C 2.78125 -6.914062 2.75 -6.707031 2.75 -6.4375 L 2.75 -1.109375 C 2.75 -0.859375 2.789062 -0.664062 2.875 -0.53125 C 2.957031 -0.40625 3.078125 -0.320312 3.234375 -0.28125 C 3.398438 -0.238281 3.625 -0.210938 3.90625 -0.203125 L 3.90625 0 L 0.390625 0 L 0.390625 -0.203125 C 0.679688 -0.210938 0.90625 -0.238281 1.0625 -0.28125 C 1.226562 -0.320312 1.347656 -0.40625 1.421875 -0.53125 C 1.503906 -0.664062 1.546875 -0.863281 1.546875 -1.125 L 1.546875 -6.4375 C 1.546875 -6.707031 1.507812 -6.914062 1.4375 -7.0625 C 1.375 -7.207031 1.257812 -7.304688 1.09375 -7.359375 C 0.9375 -7.410156 0.703125 -7.441406 0.390625 -7.453125 L 0.390625 -7.65625 L 3.90625 -7.65625 Z M 1.75 -8.328125 L 1.578125 -8.328125 L 2.140625 -10.21875 L 3.359375 -10.21875 Z M 1.75 -8.328125 "/></g></g></g><g fill="#ffffff" fill-opacity="1"><g transform="translate(221.408607, 250.728044)"><g><path d="M 8.71875 -3.828125 C 8.71875 -3.066406 8.515625 -2.394531 8.109375 -1.8125 C 7.710938 -1.238281 7.175781 -0.789062 6.5 -0.46875 C 5.832031 -0.15625 5.097656 0 4.296875 0 L 0.359375 0 L 0.359375 -0.203125 C 0.753906 -0.210938 1.039062 -0.28125 1.21875 -0.40625 C 1.394531 -0.53125 1.484375 -0.769531 1.484375 -1.125 L 1.484375 -6.546875 C 1.484375 -6.898438 1.390625 -7.140625 1.203125 -7.265625 C 1.015625 -7.390625 0.734375 -7.453125 0.359375 -7.453125 L 0.359375 -7.65625 L 4.625 -7.65625 C 5.476562 -7.65625 6.210938 -7.472656 6.828125 -7.109375 C 7.453125 -6.742188 7.921875 -6.269531 8.234375 -5.6875 C 8.554688 -5.101562 8.71875 -4.484375 8.71875 -3.828125 Z M 2.6875 -7.046875 L 2.6875 -0.5625 C 3.050781 -0.445312 3.453125 -0.390625 3.890625 -0.390625 C 4.566406 -0.390625 5.164062 -0.523438 5.6875 -0.796875 C 6.207031 -1.078125 6.609375 -1.472656 6.890625 -1.984375 C 7.171875 -2.503906 7.3125 -3.097656 7.3125 -3.765625 C 7.3125 -4.429688 7.171875 -5.023438 6.890625 -5.546875 C 6.609375 -6.078125 6.207031 -6.488281 5.6875 -6.78125 C 5.175781 -7.082031 4.585938 -7.234375 3.921875 -7.234375 C 3.472656 -7.234375 3.0625 -7.171875 2.6875 -7.046875 Z M 2.6875 -7.046875 "/></g></g></g><g fill="#ffffff" fill-opacity="1"><g transform="translate(232.758708, 250.728044)"><g><path d="M 3.90625 -7.453125 C 3.59375 -7.453125 3.351562 -7.421875 3.1875 -7.359375 C 3.03125 -7.304688 2.914062 -7.207031 2.84375 -7.0625 C 2.78125 -6.914062 2.75 -6.707031 2.75 -6.4375 L 2.75 -1.109375 C 2.75 -0.859375 2.789062 -0.664062 2.875 -0.53125 C 2.957031 -0.40625 3.078125 -0.320312 3.234375 -0.28125 C 3.398438 -0.238281 3.625 -0.210938 3.90625 -0.203125 L 3.90625 0 L 0.390625 0 L 0.390625 -0.203125 C 0.679688 -0.210938 0.90625 -0.238281 1.0625 -0.28125 C 1.226562 -0.320312 1.347656 -0.40625 1.421875 -0.53125 C 1.503906 -0.664062 1.546875 -0.863281 1.546875 -1.125 L 1.546875 -6.4375 C 1.546875 -6.707031 1.507812 -6.914062 1.4375 -7.0625 C 1.375 -7.207031 1.257812 -7.304688 1.09375 -7.359375 C 0.9375 -7.410156 0.703125 -7.441406 0.390625 -7.453125 L 0.390625 -7.65625 L 3.90625 -7.65625 Z M 3.90625 -7.453125 "/></g></g></g><g fill="#ffffff" fill-opacity="1"><g transform="translate(239.230154, 250.728044)"><g><path d="M 4.640625 -7.828125 C 5.015625 -7.828125 5.335938 -7.789062 5.609375 -7.71875 C 5.878906 -7.644531 6.140625 -7.550781 6.390625 -7.4375 C 6.597656 -7.351562 6.734375 -7.3125 6.796875 -7.3125 C 6.878906 -7.3125 6.960938 -7.359375 7.046875 -7.453125 C 7.128906 -7.546875 7.1875 -7.671875 7.21875 -7.828125 L 7.40625 -7.828125 L 7.59375 -5.234375 L 7.40625 -5.234375 C 7.34375 -5.691406 7.175781 -6.082031 6.90625 -6.40625 C 6.644531 -6.726562 6.320312 -6.972656 5.9375 -7.140625 C 5.5625 -7.304688 5.160156 -7.390625 4.734375 -7.390625 C 3.867188 -7.390625 3.171875 -7.078125 2.640625 -6.453125 C 2.117188 -5.835938 1.859375 -4.90625 1.859375 -3.65625 C 1.859375 -2.914062 2 -2.289062 2.28125 -1.78125 C 2.570312 -1.28125 2.945312 -0.910156 3.40625 -0.671875 C 3.875 -0.429688 4.375 -0.3125 4.90625 -0.3125 C 5.445312 -0.3125 5.960938 -0.445312 6.453125 -0.71875 C 6.941406 -1 7.320312 -1.367188 7.59375 -1.828125 L 7.765625 -1.71875 C 7.023438 -0.457031 5.941406 0.171875 4.515625 0.171875 C 3.765625 0.171875 3.082031 0 2.46875 -0.34375 C 1.851562 -0.695312 1.363281 -1.171875 1 -1.765625 C 0.644531 -2.359375 0.46875 -3.007812 0.46875 -3.71875 C 0.46875 -4.46875 0.648438 -5.15625 1.015625 -5.78125 C 1.390625 -6.414062 1.894531 -6.914062 2.53125 -7.28125 C 3.175781 -7.644531 3.878906 -7.828125 4.640625 -7.828125 Z M 4.640625 -7.828125 "/></g></g></g><g fill="#ffffff" fill-opacity="1"><g transform="translate(249.421867, 250.728044)"><g><path d="M 4.296875 -7.828125 C 4.992188 -7.828125 5.640625 -7.644531 6.234375 -7.28125 C 6.828125 -6.925781 7.296875 -6.441406 7.640625 -5.828125 C 7.992188 -5.210938 8.171875 -4.546875 8.171875 -3.828125 C 8.171875 -3.097656 7.992188 -2.425781 7.640625 -1.8125 C 7.296875 -1.207031 6.828125 -0.722656 6.234375 -0.359375 C 5.640625 -0.00390625 4.992188 0.171875 4.296875 0.171875 C 3.585938 0.171875 2.9375 -0.00390625 2.34375 -0.359375 C 1.75 -0.722656 1.273438 -1.207031 0.921875 -1.8125 C 0.578125 -2.425781 0.40625 -3.097656 0.40625 -3.828125 C 0.40625 -4.546875 0.578125 -5.210938 0.921875 -5.828125 C 1.273438 -6.441406 1.75 -6.925781 2.34375 -7.28125 C 2.9375 -7.644531 3.585938 -7.828125 4.296875 -7.828125 Z M 1.8125 -3.828125 C 1.8125 -3.109375 1.910156 -2.476562 2.109375 -1.9375 C 2.316406 -1.40625 2.609375 -0.988281 2.984375 -0.6875 C 3.359375 -0.394531 3.796875 -0.25 4.296875 -0.25 C 4.785156 -0.25 5.21875 -0.394531 5.59375 -0.6875 C 5.976562 -0.988281 6.269531 -1.40625 6.46875 -1.9375 C 6.675781 -2.476562 6.78125 -3.109375 6.78125 -3.828125 C 6.78125 -4.523438 6.679688 -5.144531 6.484375 -5.6875 C 6.285156 -6.226562 6 -6.644531 5.625 -6.9375 C 5.25 -7.238281 4.800781 -7.390625 4.28125 -7.390625 C 3.769531 -7.390625 3.328125 -7.238281 2.953125 -6.9375 C 2.578125 -6.632812 2.289062 -6.210938 2.09375 -5.671875 C 1.90625 -5.128906 1.8125 -4.515625 1.8125 -3.828125 Z M 1.8125 -3.828125 "/></g></g></g><path stroke-linecap="butt" transform="matrix(0.752216, -0.00159971, 0.001595, 0.749998, 128.049781, 234.014663)" fill="none" stroke-linejoin="miter" d="M 0.00026696 0.501284 L 158.531877 0.500883 " stroke="#ffffff" stroke-width="1" stroke-opacity="1" stroke-miterlimit="4"/><g clip-path="url(#7040bf7202)"><g clip-path="url(#39eceeefa4)"><path fill="#173358" d="M 112.125 55.800781 L 142.875 55.800781 L 142.875 98.550781 L 112.125 98.550781 Z M 112.125 55.800781 " fill-opacity="1" fill-rule="nonzero"/></g></g><g clip-path="url(#48e7336c44)"><g clip-path="url(#e9de8e6f88)"><path fill="#173358" d="M 225.601562 54.523438 L 265.351562 54.523438 L 265.351562 99.523438 L 225.601562 99.523438 Z M 225.601562 54.523438 " fill-opacity="1" fill-rule="nonzero"/></g></g><g clip-path="url(#936e29a43a)"><g clip-path="url(#04b9abcfdf)"><path fill="#173358" d="M 238.800781 66 L 260.550781 66 L 260.550781 84.75 L 238.800781 84.75 Z M 238.800781 66 " fill-opacity="1" fill-rule="nonzero"/></g></g></svg>