<svg width="801" height="1021" viewBox="0 0 801 1021" fill="none" xmlns="http://www.w3.org/2000/svg">
<rect x="0.5" y="0.5" width="800" height="1020" fill="#173358"/>
<g clip-path="url(#clip0_1_4)">
<path d="M268.447 509.111C269.439 509.111 270.298 509.205 271.023 509.394C271.758 509.583 272.512 509.837 273.275 510.149C273.657 510.3 274.029 510.432 274.401 510.545C274.768 510.658 275.097 510.715 275.393 510.715C276.104 510.715 276.662 510.182 277.073 509.111H277.912V519.039H277.073C276.92 517.505 276.452 516.109 275.68 514.849C274.902 513.579 273.933 512.579 272.779 511.848C271.62 511.121 270.379 510.753 269.058 510.753C267.617 510.753 266.386 511.187 265.355 512.055C264.325 512.914 263.81 513.952 263.81 515.17C263.81 516.595 264.516 517.826 265.928 518.869C266.93 519.586 268.323 520.455 270.107 521.474C271.696 522.432 273.017 523.262 274.077 523.965C275.131 524.659 276.118 525.414 277.034 526.23C277.845 527.014 278.494 527.91 278.981 528.929C279.463 529.949 279.706 530.996 279.706 532.063C279.706 533.549 279.291 534.932 278.466 536.215C277.65 537.489 276.529 538.494 275.107 539.235C273.681 539.976 272.116 540.349 270.413 540.349C269.33 540.349 268.371 540.254 267.531 540.066C266.701 539.877 265.832 539.622 264.916 539.292C263.924 538.952 263.17 538.782 262.665 538.782C261.873 538.782 261.276 539.306 260.871 540.349H260.069V530.27H260.871C261.367 532.865 262.35 534.913 263.829 536.423C265.317 537.933 267.235 538.688 269.592 538.688C271.257 538.688 272.631 538.244 273.714 537.348C274.806 536.442 275.355 535.304 275.355 533.931C275.355 533.242 275.222 532.605 274.954 532.025C274.687 531.449 274.248 530.826 273.638 530.156C273.075 529.566 272.283 528.929 271.252 528.25C270.231 527.57 268.872 526.721 267.168 525.702C265.728 524.834 264.63 524.149 263.867 523.644C263.104 523.13 262.531 522.682 262.149 522.304C260.647 520.794 259.898 518.982 259.898 516.868C259.898 515.41 260.27 514.094 261.023 512.923C261.773 511.744 262.789 510.809 264.077 510.13C265.374 509.45 266.83 509.111 268.447 509.111Z" fill="white"/>
<path d="M286.7 533.894L297.979 508.45H298.78L310.669 535.555C311.113 536.536 311.533 537.267 311.928 537.744C312.32 538.225 312.735 538.537 313.169 538.688C313.613 538.829 314.218 538.895 314.982 538.895V539.688H302.559V538.895C303.613 538.895 304.4 538.707 304.925 538.329C305.459 537.952 305.726 537.451 305.726 536.819C305.726 536.267 305.536 535.583 305.154 534.762L302.864 529.628H290.67L288.17 535.328C287.874 535.908 287.731 536.432 287.731 536.895C287.731 538.23 288.809 538.895 290.975 538.895V539.688H282.254V538.895C282.989 538.82 283.59 538.612 284.048 538.273C284.506 537.933 284.911 537.451 285.269 536.819C285.636 536.177 286.114 535.205 286.7 533.894ZM302.177 527.967L296.795 515.811L291.414 527.967H302.177Z" fill="white"/>
<path d="M337.477 532.629L348.087 509.752H357.304V510.545H356.999C355.587 510.545 354.542 510.791 353.869 511.281C353.192 511.772 352.858 512.716 352.858 514.113V535.385C352.858 536.659 353.173 537.565 353.812 538.103C354.461 538.631 355.548 538.895 357.075 538.895H357.304V539.688H343.64V538.895H344.041C345.415 538.895 346.431 538.631 347.095 538.103C347.753 537.565 348.087 536.626 348.087 535.29V514.603H348.011L336.37 539.688H335.587L323.966 514.603H323.87V535.328C323.87 536.725 324.185 537.664 324.824 538.14C325.473 538.622 326.561 538.872 328.088 538.895V539.688H317.477V538.895H317.744C319.157 538.895 320.197 538.645 320.874 538.14C321.547 537.64 321.885 536.687 321.885 535.29V514.849C321.885 513.49 321.528 512.47 320.817 511.791C320.116 511.102 319.004 510.687 317.477 510.545V509.752H326.733L337.477 532.629Z" fill="white"/>
<path d="M384.975 518.133C384.975 519.671 384.546 521.073 383.697 522.342C382.857 523.602 381.693 524.598 380.204 525.324C378.725 526.042 377.06 526.4 375.205 526.4C373.153 526.4 371.202 526.07 369.346 525.4V535.29C369.346 536.739 369.699 537.702 370.415 538.178C371.14 538.659 372.294 538.895 373.888 538.895V539.688H360.281V538.895C361.894 538.895 363.015 538.631 363.64 538.103C364.275 537.565 364.594 536.626 364.594 535.29V514.113C364.594 512.754 364.256 511.824 363.583 511.319C362.905 510.805 361.894 510.545 360.549 510.545H360.281V509.752H373.525C375.434 509.752 377.256 510.05 379.002 510.64C380.758 511.22 382.189 512.145 383.296 513.414C384.412 514.674 384.975 516.245 384.975 518.133ZM369.346 511.98V523.871C370.73 524.451 371.98 524.739 373.086 524.739C374.995 524.739 376.531 524.154 377.705 522.984C378.888 521.804 379.479 520.242 379.479 518.303C379.479 516.264 378.859 514.613 377.628 513.339C376.393 512.055 374.689 511.413 372.514 511.413C371.545 511.413 370.491 511.602 369.346 511.98Z" fill="white"/>
<path d="M390.824 533.894L402.102 508.45H402.904L414.793 535.555C415.236 536.536 415.656 537.267 416.052 537.744C416.443 538.225 416.858 538.537 417.293 538.688C417.736 538.829 418.342 538.895 419.105 538.895V539.688H406.682V538.895C407.737 538.895 408.524 538.707 409.049 538.329C409.583 537.952 409.85 537.451 409.85 536.819C409.85 536.267 409.659 535.583 409.278 534.762L406.988 529.628H394.793L392.293 535.328C391.998 535.908 391.854 536.432 391.854 536.895C391.854 538.23 392.933 538.895 395.099 538.895V539.688H386.378V538.895C387.112 538.82 387.713 538.612 388.171 538.273C388.629 537.933 389.035 537.451 389.393 536.819C389.76 536.177 390.237 535.205 390.824 533.894ZM406.301 527.967L400.919 515.811L395.538 527.967H406.301Z" fill="white"/>
<path d="M436.677 509.111C439.463 509.111 442.025 509.809 444.367 511.206C446.719 512.593 448.585 514.485 449.959 516.887C451.342 519.28 452.039 521.898 452.039 524.739C452.039 527.561 451.342 530.17 449.959 532.572C448.585 534.965 446.719 536.857 444.367 538.254C442.025 539.65 439.463 540.349 436.677 540.349C433.876 540.349 431.3 539.65 428.948 538.254C426.605 536.857 424.75 534.965 423.376 532.572C422.011 530.17 421.334 527.561 421.334 524.739C421.334 521.898 422.011 519.28 423.376 516.887C424.75 514.485 426.605 512.593 428.948 511.206C431.3 509.809 433.876 509.111 436.677 509.111ZM426.849 524.739C426.849 527.533 427.249 529.986 428.051 532.1C428.862 534.205 430.007 535.828 431.486 536.97C432.974 538.117 434.701 538.688 436.677 538.688C438.633 538.688 440.364 538.117 441.867 536.97C443.365 535.828 444.52 534.205 445.321 532.1C446.132 529.986 446.543 527.533 446.543 524.739C446.543 522.012 446.142 519.586 445.34 517.472C444.548 515.349 443.413 513.697 441.925 512.527C440.446 511.347 438.68 510.753 436.619 510.753C434.597 510.753 432.846 511.352 431.371 512.546C429.907 513.744 428.786 515.405 428.013 517.529C427.235 519.643 426.849 522.049 426.849 524.739Z" fill="white"/>
<path d="M469.076 510.545C467.549 510.545 466.452 510.786 465.793 511.262C465.13 511.744 464.801 512.711 464.801 514.169V536.026C464.801 536.645 464.92 537.083 465.164 537.348C465.416 537.602 465.836 537.725 466.423 537.725H472.988C474.514 537.725 475.774 537.532 476.766 537.14C477.768 536.753 478.627 536.116 479.342 535.234C480.068 534.342 480.764 533.082 481.442 531.459L482.205 531.723L479.648 539.688H455.507V538.895H455.813C457.311 538.895 458.394 538.641 459.057 538.122C459.715 537.593 460.049 536.649 460.049 535.29V514.113C460.049 512.782 459.696 511.857 459 511.338C458.313 510.809 457.234 510.545 455.775 510.545H455.507V509.752H469.076V510.545Z" fill="white"/>
<path d="M508.956 516.378H508.212C507.916 514.731 507.372 513.509 506.571 512.716C505.779 511.914 504.687 511.508 503.289 511.508H493.728V523.04H501.571C502.969 523.04 503.961 522.696 504.548 522.002C505.145 521.313 505.455 520.209 505.483 518.699H506.285V529.231H505.483C505.483 527.721 505.187 526.608 504.605 525.891C504.019 525.164 502.974 524.796 501.476 524.796H493.728V535.724C493.728 537.211 494.31 537.952 495.484 537.952H503.231C504.844 537.952 506.27 537.47 507.506 536.498C508.737 535.517 509.739 534.096 510.502 532.233H511.437L508.956 539.688H484.606V538.895C486.133 538.895 487.24 538.645 487.927 538.14C488.623 537.64 488.976 536.687 488.976 535.29V513.848C488.976 512.692 488.623 511.857 487.927 511.338C487.24 510.809 486.133 510.545 484.606 510.545V509.752H508.613L508.956 516.378Z" fill="white"/>
<path d="M523.495 509.111C524.487 509.111 525.346 509.205 526.071 509.394C526.806 509.583 527.559 509.837 528.323 510.149C528.704 510.3 529.077 510.432 529.449 510.545C529.816 510.658 530.145 510.715 530.441 510.715C531.152 510.715 531.71 510.182 532.12 509.111H532.96V519.039H532.12C531.968 517.505 531.5 516.109 530.727 514.849C529.95 513.579 528.981 512.579 527.827 511.848C526.667 511.121 525.427 510.753 524.105 510.753C522.665 510.753 521.434 511.187 520.403 512.055C519.373 512.914 518.857 513.952 518.857 515.17C518.857 516.595 519.564 517.826 520.976 518.869C521.978 519.586 523.371 520.455 525.155 521.474C526.744 522.432 528.065 523.262 529.124 523.965C530.179 524.659 531.166 525.414 532.082 526.23C532.893 527.014 533.542 527.91 534.029 528.929C534.511 529.949 534.754 530.996 534.754 532.063C534.754 533.549 534.339 534.932 533.513 536.215C532.698 537.489 531.576 538.494 530.155 539.235C528.728 539.976 527.163 540.349 525.46 540.349C524.377 540.349 523.418 540.254 522.579 540.066C521.749 539.877 520.88 539.622 519.964 539.292C518.972 538.952 518.218 538.782 517.712 538.782C516.92 538.782 516.324 539.306 515.919 540.349H515.117V530.27H515.919C516.415 532.865 517.398 534.913 518.877 536.423C520.365 537.933 522.283 538.688 524.64 538.688C526.305 538.688 527.679 538.244 528.762 537.348C529.854 536.442 530.403 535.304 530.403 533.931C530.403 533.242 530.269 532.605 530.002 532.025C529.735 531.449 529.296 530.826 528.685 530.156C528.122 529.566 527.33 528.929 526.3 528.25C525.279 527.57 523.919 526.721 522.216 525.702C520.775 524.834 519.678 524.149 518.915 523.644C518.151 523.13 517.579 522.682 517.197 522.304C515.694 520.794 514.945 518.982 514.945 516.868C514.945 515.41 515.317 514.094 516.071 512.923C516.82 511.744 517.836 510.809 519.125 510.13C520.422 509.45 521.877 509.111 523.495 509.111Z" fill="white"/>
<path d="M552.148 510.545C550.913 510.545 549.973 510.658 549.324 510.885C548.685 511.102 548.236 511.489 547.969 512.055C547.702 512.621 547.568 513.442 547.568 514.509V535.328C547.568 536.324 547.726 537.074 548.046 537.574C548.375 538.079 548.857 538.419 549.496 538.593C550.145 538.773 551.027 538.872 552.148 538.895V539.688H538.237V538.895C539.406 538.872 540.302 538.773 540.927 538.593C541.562 538.419 542.034 538.079 542.34 537.574C542.654 537.074 542.817 536.31 542.817 535.29V514.509C542.817 513.442 542.674 512.631 542.397 512.074C542.115 511.522 541.657 511.14 541.023 510.923C540.398 510.696 539.468 510.573 538.237 510.545V509.752H552.148V510.545Z" fill="white"/>
<mask id="mask0_1_4" style="mask-type:luminance" maskUnits="userSpaceOnUse" x="312" y="355" width="176" height="132">
<path d="M312.656 355.536H487.612V486H312.656V355.536Z" fill="white"/>
</mask>
<g mask="url(#mask0_1_4)">
<path d="M480.78 383.806L478.666 388.03L473.943 388.704L477.359 391.993L476.553 396.632L480.78 394.438L485.002 396.632L484.196 391.993L487.616 388.704L482.888 388.03L480.78 383.806ZM463.323 355.565L462.083 358.042L459.316 358.438L461.32 360.368L460.847 363.086L463.323 361.803L465.804 363.086L465.332 360.368L467.336 358.438L464.564 358.042L463.323 355.565ZM474.668 367.201L473.094 370.348L469.573 370.853L472.121 373.302L471.52 376.757L474.668 375.129L477.817 376.757L477.216 373.302L479.764 370.853L476.243 370.348L474.668 367.201ZM317.379 388.03L312.656 388.704L316.071 391.993L315.265 396.632L319.492 394.438L323.714 396.632L322.908 391.993L326.329 388.704L321.601 388.03L319.492 383.806L317.379 388.03ZM335.703 358.042L332.932 358.438L334.94 360.368L334.463 363.086L336.944 361.803L339.425 363.086L338.948 360.368L340.956 358.438L338.184 358.042L336.944 355.565L335.703 358.042ZM324.024 370.348L320.508 370.853L323.051 373.302L322.45 376.757L325.599 375.129L328.748 376.757L328.146 373.302L330.694 370.853L327.173 370.348L325.599 367.201L324.024 370.348ZM361.848 401.157H376.556V395.806H361.848V401.157ZM438.768 401.157V395.806H424.059V401.157H438.768ZM446.964 373.935H353.647V379.281H446.964V373.935ZM438.768 384.868H361.848V390.219H438.768V384.868ZM403.621 470.211V395.985H398.197V470.211H403.621ZM483.719 403.724C483.719 422.59 477.073 441.021 465.012 455.626C453.123 470.023 436.502 480.125 418.215 484.07C416.326 484.476 414.446 484.816 412.628 485.075C408.578 485.67 404.427 485.972 400.305 485.972C396.183 485.972 392.033 485.67 387.973 485.075C386.169 484.816 384.29 484.476 382.396 484.07C364.109 480.125 347.487 470.023 335.599 455.626C323.538 441.021 316.892 422.59 316.892 403.724H321.477C321.477 439.818 347.273 471.622 382.887 479.545V395.985H388.311V480.555C388.421 480.569 388.531 480.588 388.641 480.602C396.326 481.73 404.289 481.73 411.96 480.607C412.075 480.588 412.189 480.569 412.299 480.555V395.985H417.728V479.545C453.338 471.622 479.134 439.818 479.134 403.724H483.719Z" fill="white"/>
</g>
<path d="M317.377 579.688H317.148C317.057 579.174 316.885 578.796 316.633 578.556C316.389 578.306 316.051 578.178 315.621 578.178H312.663V581.745H315.087C315.516 581.745 315.822 581.642 316.003 581.425C316.194 581.198 316.294 580.854 316.308 580.386H316.537V583.652H316.308C316.308 583.189 316.213 582.84 316.022 582.614C315.841 582.387 315.526 582.274 315.068 582.274H312.663V585.653C312.663 586.106 312.845 586.332 313.217 586.332H315.602C316.098 586.332 316.537 586.191 316.919 585.898C317.3 585.596 317.611 585.157 317.854 584.577H318.14L317.377 586.879H309.858V586.634C310.326 586.634 310.664 586.559 310.869 586.408C311.084 586.247 311.194 585.95 311.194 585.52V578.895C311.194 578.546 311.084 578.287 310.869 578.121C310.664 577.961 310.326 577.876 309.858 577.876V577.631H317.262L317.377 579.688Z" fill="white"/>
<path d="M324.537 577.423C324.842 577.423 325.109 577.456 325.338 577.518C325.567 577.584 325.796 577.664 326.025 577.763C326.14 577.801 326.254 577.838 326.369 577.876C326.483 577.914 326.584 577.933 326.674 577.933C326.889 577.933 327.061 577.763 327.189 577.423H327.457V580.5H327.189C327.151 580.023 327.008 579.589 326.77 579.197C326.526 578.81 326.226 578.508 325.873 578.291C325.515 578.065 325.133 577.952 324.728 577.952C324.279 577.952 323.898 578.084 323.583 578.348C323.263 578.612 323.106 578.933 323.106 579.311C323.106 579.754 323.32 580.132 323.754 580.443C324.06 580.67 324.489 580.943 325.052 581.255C325.534 581.547 325.939 581.802 326.273 582.029C326.603 582.246 326.908 582.477 327.189 582.727C327.442 582.968 327.638 583.246 327.781 583.558C327.934 583.874 328.01 584.195 328.01 584.52C328.01 584.987 327.881 585.417 327.628 585.804C327.371 586.195 327.022 586.511 326.579 586.747C326.145 586.974 325.668 587.087 325.148 587.087C324.804 587.087 324.503 587.054 324.251 586.993C323.993 586.927 323.726 586.856 323.449 586.766C323.129 586.653 322.896 586.596 322.743 586.596C322.5 586.596 322.314 586.762 322.19 587.087H321.942V583.973H322.19C322.342 584.766 322.648 585.403 323.106 585.879C323.564 586.346 324.155 586.578 324.88 586.578C325.4 586.578 325.825 586.441 326.159 586.162C326.502 585.874 326.674 585.521 326.674 585.105C326.674 584.893 326.626 584.699 326.541 584.52C326.464 584.331 326.331 584.138 326.14 583.935C325.959 583.76 325.71 583.567 325.396 583.35C325.076 583.138 324.656 582.873 324.136 582.557C323.688 582.293 323.344 582.085 323.106 581.934C322.877 581.774 322.705 581.632 322.59 581.519C322.118 581.042 321.884 580.476 321.884 579.82C321.884 579.381 321.999 578.98 322.228 578.612C322.466 578.249 322.786 577.961 323.182 577.744C323.573 577.532 324.026 577.423 324.537 577.423Z" fill="white"/>
<path d="M340.018 579.726H339.751C339.622 578.735 339.073 578.235 338.109 578.235H336.545V585.615C336.545 586.021 336.659 586.29 336.888 586.426C337.127 586.568 337.465 586.634 337.899 586.634V586.879H333.72V586.634C334.188 586.634 334.531 586.554 334.751 586.389C334.965 586.228 335.075 585.936 335.075 585.52V578.235H333.415C332.981 578.235 332.623 578.362 332.346 578.612C332.065 578.853 331.907 579.226 331.869 579.726H331.621L331.678 577.631H339.941L340.018 579.726Z" fill="white"/>
<path d="M347.636 577.876C347.316 577.89 347.068 577.928 346.892 577.989C346.725 578.041 346.591 578.15 346.491 578.31C346.386 578.461 346.338 578.688 346.338 578.99V584.086C346.338 584.78 346.548 585.36 346.968 585.822C347.397 586.275 348.041 586.502 348.895 586.502C349.897 586.502 350.656 586.257 351.166 585.766C351.672 585.275 351.93 584.539 351.93 583.557V578.971C351.93 578.57 351.82 578.287 351.605 578.121C351.4 577.961 351.09 577.876 350.67 577.876H350.536V577.631H353.952V577.876C353.609 577.876 353.332 577.909 353.132 577.97C352.927 578.022 352.774 578.131 352.674 578.291C352.569 578.442 352.521 578.678 352.521 578.99V583.708C352.521 584.312 352.378 584.874 352.101 585.388C351.834 585.893 351.419 586.304 350.861 586.615C350.298 586.927 349.606 587.087 348.781 587.087C347.827 587.087 347.054 586.927 346.472 586.615C345.885 586.304 345.47 585.907 345.231 585.426C344.988 584.95 344.869 584.435 344.869 583.878V579.329C344.869 578.943 344.831 578.645 344.754 578.442C344.687 578.244 344.563 578.098 344.373 578.008C344.182 577.923 343.905 577.876 343.552 577.876H343.457V577.631H347.636V577.876Z" fill="white"/>
<path d="M367.528 582.255C367.528 583.175 367.28 583.987 366.784 584.69C366.297 585.384 365.644 585.926 364.818 586.313C364.003 586.691 363.106 586.879 362.128 586.879H357.319V586.634C357.801 586.625 358.149 586.54 358.368 586.389C358.583 586.238 358.693 585.95 358.693 585.52V578.971C358.693 578.546 358.578 578.254 358.349 578.103C358.12 577.952 357.777 577.876 357.319 577.876V577.631H362.528C363.569 577.631 364.465 577.853 365.219 578.291C365.983 578.735 366.555 579.306 366.937 580.009C367.328 580.717 367.528 581.462 367.528 582.255ZM360.162 578.367V586.2C360.606 586.342 361.097 586.408 361.632 586.408C362.457 586.408 363.187 586.247 363.826 585.917C364.461 585.577 364.952 585.101 365.296 584.482C365.639 583.855 365.811 583.138 365.811 582.331C365.811 581.528 365.639 580.811 365.296 580.179C364.952 579.537 364.461 579.042 363.826 578.688C363.201 578.324 362.481 578.14 361.67 578.14C361.121 578.14 360.62 578.216 360.162 578.367Z" fill="white"/>
<path d="M375.513 577.876C375.131 577.876 374.835 577.914 374.635 577.989C374.444 578.055 374.301 578.173 374.215 578.348C374.139 578.527 374.101 578.777 374.101 579.103V585.539C374.101 585.841 374.148 586.077 374.253 586.238C374.354 586.389 374.502 586.493 374.692 586.54C374.893 586.592 375.169 586.625 375.513 586.634V586.879H371.219V586.634C371.572 586.625 371.849 586.592 372.04 586.54C372.24 586.493 372.388 586.389 372.479 586.238C372.579 586.077 372.631 585.837 372.631 585.52V579.103C372.631 578.777 372.584 578.527 372.498 578.348C372.421 578.173 372.278 578.055 372.078 577.989C371.887 577.928 371.601 577.89 371.219 577.876V577.631H375.513V577.876Z" fill="white"/>
<path d="M383.894 577.423C384.743 577.423 385.535 577.645 386.26 578.084C386.985 578.513 387.558 579.098 387.978 579.839C388.407 580.585 388.626 581.387 388.626 582.255C388.626 583.138 388.407 583.949 387.978 584.69C387.558 585.421 386.985 586.007 386.26 586.445C385.535 586.875 384.743 587.087 383.894 587.087C383.026 587.087 382.234 586.875 381.508 586.445C380.783 586.007 380.201 585.421 379.772 584.69C379.352 583.949 379.142 583.138 379.142 582.255C379.142 581.387 379.352 580.585 379.772 579.839C380.201 579.098 380.783 578.513 381.508 578.084C382.234 577.645 383.026 577.423 383.894 577.423ZM380.86 582.255C380.86 583.123 380.979 583.888 381.222 584.539C381.475 585.181 381.833 585.686 382.291 586.049C382.749 586.403 383.283 586.578 383.894 586.578C384.49 586.578 385.02 586.403 385.478 586.049C385.945 585.686 386.303 585.181 386.546 584.539C386.799 583.888 386.928 583.123 386.928 582.255C386.928 581.415 386.804 580.665 386.565 580.009C386.322 579.358 385.974 578.853 385.516 578.499C385.058 578.136 384.509 577.952 383.875 577.952C383.25 577.952 382.711 578.136 382.253 578.499C381.795 578.867 381.442 579.377 381.203 580.028C380.974 580.684 380.86 581.425 380.86 582.255Z" fill="white"/>
<path d="M403.536 577.876C403.063 577.876 402.725 577.952 402.524 578.103C402.319 578.254 402.219 578.546 402.219 578.971V584.086C402.219 584.931 402.009 585.643 401.589 586.219C401.179 586.799 400.559 587.087 399.719 587.087C399.261 587.087 398.884 586.993 398.593 586.804C398.312 586.606 398.173 586.36 398.173 586.068C398.173 585.879 398.235 585.723 398.364 585.596C398.488 585.459 398.65 585.388 398.841 585.388C399.042 585.388 399.194 585.445 399.299 585.558C399.414 585.671 399.538 585.841 399.681 586.068C399.767 586.247 399.857 586.379 399.948 586.464C400.034 586.554 400.139 586.596 400.253 586.596C400.416 586.596 400.54 586.511 400.616 586.332C400.702 586.158 400.75 585.804 400.75 585.275V578.971C400.75 578.546 400.635 578.254 400.406 578.103C400.187 577.952 399.838 577.876 399.357 577.876V577.631H403.536V577.876Z" fill="white"/>
<path d="M411.111 577.876C410.791 577.89 410.543 577.928 410.367 577.989C410.2 578.041 410.066 578.15 409.966 578.31C409.861 578.461 409.813 578.688 409.813 578.99V584.086C409.813 584.78 410.023 585.36 410.443 585.822C410.872 586.275 411.517 586.502 412.371 586.502C413.372 586.502 414.131 586.257 414.641 585.766C415.147 585.275 415.405 584.539 415.405 583.557V578.971C415.405 578.57 415.295 578.287 415.08 578.121C414.875 577.961 414.565 577.876 414.145 577.876H414.012V577.631H417.428V577.876C417.084 577.876 416.807 577.909 416.607 577.97C416.402 578.022 416.249 578.131 416.149 578.291C416.044 578.442 415.996 578.678 415.996 578.99V583.708C415.996 584.312 415.853 584.874 415.577 585.388C415.309 585.893 414.894 586.304 414.336 586.615C413.773 586.927 413.081 587.087 412.256 587.087C411.302 587.087 410.529 586.927 409.947 586.615C409.36 586.304 408.945 585.907 408.707 585.426C408.463 584.95 408.344 584.435 408.344 583.878V579.329C408.344 578.943 408.306 578.645 408.229 578.442C408.163 578.244 408.039 578.098 407.848 578.008C407.657 577.923 407.38 577.876 407.027 577.876H406.932V577.631H411.111V577.876Z" fill="white"/>
<path d="M428.408 580.047C428.408 580.613 428.208 581.104 427.817 581.519C427.435 581.925 426.843 582.217 426.042 582.406L428.198 585.067C428.465 585.384 428.685 585.643 428.866 585.841C429.057 586.03 429.286 586.209 429.553 586.37C429.82 586.521 430.111 586.611 430.431 586.634V586.879H428.007L424.477 582.538H423.58V585.539C423.58 585.945 423.68 586.228 423.885 586.389C424.086 586.554 424.405 586.634 424.84 586.634H424.897V586.879H420.813V586.634C421.242 586.634 421.567 586.559 421.786 586.408C422.001 586.257 422.111 585.988 422.111 585.596V578.895C422.111 578.546 422.001 578.287 421.786 578.121C421.567 577.961 421.242 577.876 420.813 577.876V577.631H425.183C426.071 577.631 426.829 577.834 427.454 578.235C428.089 578.626 428.408 579.23 428.408 580.047ZM423.58 578.348V582.085H423.924C424.84 582.085 425.531 581.911 426.004 581.557C426.471 581.208 426.71 580.717 426.71 580.084C426.71 579.532 426.529 579.065 426.175 578.688C425.818 578.301 425.307 578.103 424.649 578.103C424.305 578.103 423.947 578.188 423.58 578.348Z" fill="white"/>
<path d="M438.281 577.876C437.899 577.876 437.603 577.914 437.403 577.989C437.212 578.055 437.069 578.173 436.983 578.348C436.907 578.527 436.869 578.777 436.869 579.103V585.539C436.869 585.841 436.916 586.077 437.021 586.238C437.121 586.389 437.269 586.493 437.46 586.54C437.661 586.592 437.937 586.625 438.281 586.634V586.879H433.987V586.634C434.34 586.625 434.617 586.592 434.808 586.54C435.008 586.493 435.156 586.389 435.246 586.238C435.347 586.077 435.399 585.837 435.399 585.52V579.103C435.399 578.777 435.351 578.527 435.266 578.348C435.189 578.173 435.046 578.055 434.846 577.989C434.655 577.928 434.369 577.89 433.987 577.876V577.631H438.281V577.876ZM435.647 576.819H435.437L436.124 574.535H437.613L435.647 576.819Z" fill="white"/>
<path d="M452.062 582.255C452.062 583.175 451.814 583.987 451.318 584.69C450.831 585.384 450.178 585.926 449.352 586.313C448.537 586.691 447.64 586.879 446.662 586.879H441.853V586.634C442.334 586.625 442.683 586.54 442.902 586.389C443.117 586.238 443.227 585.95 443.227 585.52V578.971C443.227 578.546 443.112 578.254 442.883 578.103C442.654 577.952 442.311 577.876 441.853 577.876V577.631H447.062C448.102 577.631 448.999 577.853 449.753 578.291C450.516 578.735 451.089 579.306 451.471 580.009C451.862 580.717 452.062 581.462 452.062 582.255ZM444.696 578.367V586.2C445.14 586.342 445.631 586.408 446.165 586.408C446.991 586.408 447.721 586.247 448.36 585.917C448.995 585.577 449.486 585.101 449.829 584.482C450.173 583.855 450.345 583.138 450.345 582.331C450.345 581.528 450.173 580.811 449.829 580.179C449.486 579.537 448.995 579.042 448.36 578.688C447.735 578.324 447.015 578.14 446.204 578.14C445.655 578.14 445.154 578.216 444.696 578.367Z" fill="white"/>
<path d="M460.047 577.876C459.665 577.876 459.369 577.914 459.169 577.989C458.978 578.055 458.835 578.173 458.749 578.348C458.673 578.527 458.635 578.777 458.635 579.103V585.539C458.635 585.841 458.682 586.077 458.787 586.238C458.887 586.389 459.035 586.493 459.226 586.54C459.427 586.592 459.703 586.625 460.047 586.634V586.879H455.753V586.634C456.106 586.625 456.383 586.592 456.574 586.54C456.774 586.493 456.922 586.389 457.013 586.238C457.113 586.077 457.165 585.837 457.165 585.52V579.103C457.165 578.777 457.118 578.527 457.032 578.348C456.955 578.173 456.812 578.055 456.612 577.989C456.421 577.928 456.135 577.89 455.753 577.876V577.631H460.047V577.876Z" fill="white"/>
<path d="M468.848 577.423C469.306 577.423 469.697 577.47 470.031 577.555C470.36 577.645 470.68 577.758 470.985 577.895C471.238 577.999 471.405 578.046 471.481 578.046C471.581 578.046 471.681 577.989 471.786 577.876C471.887 577.763 471.958 577.612 471.996 577.423H472.225L472.454 580.556H472.225C472.149 580.004 471.944 579.532 471.615 579.141C471.295 578.754 470.899 578.457 470.431 578.254C469.973 578.055 469.482 577.952 468.962 577.952C467.903 577.952 467.054 578.329 466.405 579.084C465.766 579.83 465.451 580.953 465.451 582.463C465.451 583.359 465.622 584.114 465.966 584.728C466.319 585.332 466.777 585.78 467.34 586.068C467.912 586.36 468.523 586.502 469.172 586.502C469.83 586.502 470.46 586.342 471.061 586.011C471.658 585.672 472.12 585.228 472.454 584.671L472.664 584.803C471.758 586.327 470.436 587.087 468.695 587.087C467.779 587.087 466.944 586.88 466.195 586.464C465.441 586.04 464.845 585.464 464.401 584.747C463.967 584.029 463.752 583.246 463.752 582.387C463.752 581.481 463.972 580.651 464.42 579.896C464.878 579.131 465.494 578.527 466.271 578.084C467.058 577.645 467.917 577.423 468.848 577.423Z" fill="white"/>
<path d="M480.875 577.423C481.724 577.423 482.516 577.645 483.241 578.084C483.967 578.513 484.539 579.098 484.959 579.839C485.388 580.585 485.608 581.387 485.608 582.255C485.608 583.138 485.388 583.949 484.959 584.69C484.539 585.421 483.967 586.007 483.241 586.445C482.516 586.875 481.724 587.087 480.875 587.087C480.007 587.087 479.215 586.875 478.49 586.445C477.765 586.007 477.183 585.421 476.753 584.69C476.333 583.949 476.123 583.138 476.123 582.255C476.123 581.387 476.333 580.585 476.753 579.839C477.183 579.098 477.765 578.513 478.49 578.084C479.215 577.645 480.007 577.423 480.875 577.423ZM477.841 582.255C477.841 583.123 477.96 583.888 478.203 584.539C478.456 585.181 478.814 585.686 479.272 586.049C479.73 586.403 480.264 586.578 480.875 586.578C481.472 586.578 482.001 586.403 482.459 586.049C482.927 585.686 483.284 585.181 483.528 584.539C483.781 583.888 483.909 583.123 483.909 582.255C483.909 581.415 483.785 580.665 483.547 580.009C483.304 579.358 482.955 578.853 482.497 578.499C482.039 578.136 481.491 577.952 480.856 577.952C480.231 577.952 479.692 578.136 479.234 578.499C478.776 578.867 478.423 579.377 478.184 580.028C477.955 580.684 477.841 581.425 477.841 582.255Z" fill="white"/>
<path d="M327.393 567.144L473.037 566.837" stroke="white" stroke-width="1.00148"/>
<mask id="mask1_1_4" style="mask-type:luminance" maskUnits="userSpaceOnUse" x="310" y="354" width="32" height="46">
<path d="M310.69 354.125H341.987V399.968H310.69V354.125Z" fill="white"/>
</mask>
<g mask="url(#mask1_1_4)">
<mask id="mask2_1_4" style="mask-type:luminance" maskUnits="userSpaceOnUse" x="311" y="354" width="31" height="46">
<path d="M329.468 357.296C336.615 354.758 338.537 354.578 339.635 355.121C340.551 355.574 341.195 356.39 341.557 357.476C342.111 359.108 341.925 363.001 341.099 364.544C340.551 365.54 339.635 366.083 338.719 366.446C337.803 366.809 336.429 366.989 335.513 366.536C334.415 366.083 333.59 363.365 332.765 363.365C332.035 363.365 331.577 364.544 330.842 365.63C329.377 367.715 325.346 375.685 325.527 375.78C325.623 375.869 326.901 373.515 327.269 373.604C327.913 373.784 327.817 378.498 327.913 380.489C328.003 381.938 328.094 382.933 327.913 384.292C327.636 385.835 327.269 387.647 326.262 389.006C325.165 390.545 322.321 393.083 321.315 392.72C320.308 392.267 320.766 386.288 320.217 386.199C319.85 386.104 319.025 387.558 318.753 388.643C318.295 390.276 319.211 394.895 318.657 395.075C318.295 395.164 317.102 394.079 316.921 392.899C316.367 389.37 322.598 373.241 325.527 370.07C326.72 368.801 328.094 368.258 329.101 368.348C329.835 368.348 330.475 368.89 330.842 369.438C331.3 370.16 331.849 371.519 331.577 372.425C331.3 373.241 330.293 374.326 329.468 374.6C328.643 374.874 327.178 374.6 326.443 374.147C325.804 373.784 325.437 373.151 325.255 372.425C325.069 371.608 325.437 370.16 325.895 369.438C326.353 368.89 327.087 368.437 327.727 368.348C328.371 368.258 329.191 368.348 329.745 368.621C330.384 368.89 330.933 369.438 331.3 369.98C331.667 370.523 331.758 371.25 331.667 372.061C331.481 373.331 330.017 374.6 329.191 376.775C327.636 380.763 325.623 391.451 324.249 394.711C323.695 396.07 323.423 396.618 322.689 397.429C321.959 398.246 321.133 399.062 319.941 399.425C318.295 399.878 314.812 399.878 313.438 398.883C312.341 398.066 311.883 396.618 311.606 394.985C311.148 392.357 311.425 386.378 312.341 384.203C312.799 383.028 313.347 382.48 314.263 381.848C315.361 381.121 316.921 380.399 318.476 380.215C320.399 380.036 323.423 380.489 324.979 381.485C326.171 382.301 326.901 383.57 327.359 385.019C328.003 386.831 328.094 389.728 327.817 391.814C327.636 393.626 327.087 395.617 326.262 396.707C325.623 397.613 324.611 398.066 323.605 398.43C322.598 398.788 321.315 399.062 320.308 398.699C319.211 398.335 318.018 397.16 317.379 396.165C316.825 395.259 316.644 393.989 316.553 392.899C316.463 391.814 316.553 390.818 317.011 389.549C317.651 387.737 320.217 385.651 320.766 383.297C321.405 380.579 319.941 376.502 320.127 374.057C320.217 372.514 320.217 371.155 320.947 370.16C321.773 369.164 323.695 368.532 324.979 368.258C326.171 368.079 327.269 368.168 328.371 368.437C329.559 368.801 331.119 369.343 331.849 370.344C332.674 371.429 333.041 373.241 332.765 374.874C332.493 376.955 330.933 380.31 329.101 381.485C327.269 382.664 323.514 382.664 321.682 382.027C320.308 381.574 319.115 380.215 318.567 379.13C318.109 378.134 318.018 377.318 318.295 375.959C318.843 372.878 322.779 364.908 325.255 361.642C326.901 359.472 328.643 357.929 330.384 357.112C331.758 356.48 333.223 356.48 334.415 356.57C335.422 356.659 336.519 356.659 337.163 357.296C337.989 358.018 338.905 360.283 338.537 360.92C338.17 361.553 335.971 361.916 335.422 361.463C334.964 361.1 334.964 358.835 335.422 358.566C335.88 358.292 338.351 359.741 338.261 360.283C338.17 361.189 331.758 363.185 330.017 362.643C328.919 362.279 328.003 361.01 327.913 360.104C327.817 359.198 329.468 357.296 329.468 357.296Z" fill="white"/>
</mask>
<g mask="url(#mask2_1_4)">
<path d="M307.942 351.407H345.498V403.049H307.942V351.407Z" fill="#173358"/>
</g>
</g>
<mask id="mask3_1_4" style="mask-type:luminance" maskUnits="userSpaceOnUse" x="449" y="352" width="44" height="50">
<path d="M449.464 352.856H492.211V401.176H449.464V352.856Z" fill="white"/>
</mask>
<g mask="url(#mask3_1_4)">
<mask id="mask4_1_4" style="mask-type:luminance" maskUnits="userSpaceOnUse" x="450" y="353" width="42" height="48">
<path d="M452.303 357.023C461.649 354.668 463.385 354.942 464.669 355.937C466.043 357.023 466.229 360.194 467.507 361.373C468.519 362.279 469.893 362.095 471.081 362.912C472.545 364.002 474.377 366.083 475.479 367.531C476.305 368.621 476.853 369.254 477.221 370.797C477.951 373.515 476.763 379.762 477.679 383.117C478.409 385.746 480.427 387.374 481.157 389.549C481.801 391.635 482.44 395.712 482.073 395.891C481.801 395.981 480.517 394.622 480.241 393.447C479.692 391.451 481.524 386.652 481.247 384.387C481.066 382.933 480.699 382.575 480.059 381.032C478.499 377.408 473.738 366.989 470.623 363.454C468.881 361.373 465.403 360.557 465.403 359.561C465.403 358.924 466.959 358.018 467.693 358.018C468.519 358.018 469.158 358.924 470.165 360.014C472.822 363.001 479.969 373.694 482.349 378.314C483.633 380.942 484.363 382.754 484.73 384.745C485.097 386.468 485.279 388.369 484.821 389.639C484.453 390.729 483.447 391.814 482.621 392.177C481.891 392.541 480.789 392.541 480.059 392.177C479.143 391.724 478.041 390.545 477.679 388.822C476.853 385.109 479.601 372.788 481.524 369.438C482.349 367.984 483.265 367.173 484.363 366.809C485.465 366.446 487.387 366.899 488.213 367.531C488.852 367.984 489.219 368.985 489.219 369.707C489.219 370.433 488.485 371.972 488.485 371.972C488.485 371.972 489.033 369.343 489.219 369.343C489.491 369.343 489.31 373.151 489.677 375.053C490.045 377.044 491.781 379.673 491.6 381.032C491.509 381.848 490.865 382.48 490.317 382.844C489.768 383.207 488.943 383.57 488.213 383.386C487.201 383.207 485.369 381.848 485.007 380.852C484.73 379.946 485.188 378.498 485.827 377.771C486.471 377.044 487.936 376.502 488.852 376.686C489.768 376.865 490.961 377.861 491.419 378.587C491.781 379.22 491.967 380.036 491.691 380.763C491.323 381.669 489.677 383.297 488.575 383.386C487.478 383.481 486.013 382.301 485.097 381.216C483.995 379.857 483.175 377.497 482.898 375.327C482.531 372.878 482.44 368.437 483.633 367.262C484.453 366.446 486.653 366.446 487.569 366.989C488.485 367.531 489.129 369.343 489.129 370.523C489.129 371.703 488.027 372.425 487.478 374.057C486.471 377.408 486.195 386.741 484.821 389.639C484.181 390.998 483.447 391.814 482.621 392.177C481.891 392.541 480.789 392.541 480.059 392.177C479.143 391.814 478.137 390.729 477.769 389.728C477.311 388.553 478.595 387.284 478.041 385.293C476.667 379.946 461.739 363.001 461.191 358.471C461.005 357.112 461.463 356.39 462.107 355.574C462.837 354.668 464.397 353.762 465.585 353.488C466.687 353.309 467.603 353.399 468.881 353.941C471.081 354.847 474.377 356.843 476.944 360.014C481.157 365.177 487.111 377.318 488.485 384.387C489.491 389.459 488.943 395.617 487.659 397.977C487.02 399.152 486.013 399.515 484.911 399.968C483.633 400.511 481.705 400.695 480.331 400.6C479.053 400.511 477.769 400.511 476.853 399.789C475.847 398.972 475.112 397.16 474.835 395.891C474.654 394.806 475.389 393.989 475.112 392.81C474.745 391.087 472.273 389.459 471.539 387.01C470.441 383.386 472.455 375.869 471.081 372.609C470.165 370.433 468.423 369.438 466.868 368.079C465.127 366.625 462.197 365.54 461.095 364.091C460.275 363.096 460.823 361.284 459.907 360.831C458.624 360.194 454.411 362.822 452.761 362.732C451.935 362.643 451.296 362.459 450.838 361.916C450.289 361.284 449.922 359.561 450.199 358.745C450.471 358.018 452.303 357.023 452.303 357.023Z" fill="white"/>
</mask>
<g mask="url(#mask4_1_4)">
<path d="M446.535 349.864H495.083V404.224H446.535V349.864Z" fill="#173358"/>
</g>
</g>
<mask id="mask5_1_4" style="mask-type:luminance" maskUnits="userSpaceOnUse" x="466" y="366" width="21" height="18">
<path d="M466.319 366.446H486.104V383.66H466.319V366.446Z" fill="white"/>
</mask>
<g mask="url(#mask5_1_4)">
<mask id="mask6_1_4" style="mask-type:luminance" maskUnits="userSpaceOnUse" x="466" y="367" width="20" height="17">
<path d="M471.815 373.968C472.822 375.506 471.997 372.878 472.455 372.425C473.003 371.972 474.931 372.425 475.751 372.967C476.577 373.42 476.577 374.69 477.493 375.232C478.867 376.138 482.531 375.685 483.905 376.591C484.821 377.228 485.465 378.403 485.555 379.309C485.646 380.31 485.007 381.758 484.181 382.301C483.265 382.933 480.885 382.933 479.969 382.301C479.143 381.758 478.409 380.31 478.499 379.309C478.685 378.224 480.15 376.502 481.247 376.138C482.163 375.869 483.723 376.322 484.453 376.955C485.188 377.592 485.737 379.13 485.555 380.036C485.369 381.032 484.453 382.301 483.537 382.664C482.621 383.028 481.066 382.933 480.241 382.48C479.415 382.027 478.499 380.763 478.499 379.762C478.499 378.677 479.969 376.686 480.885 376.233C481.524 375.869 482.44 375.959 483.175 376.233C483.905 376.502 484.73 377.044 485.097 377.771C485.465 378.677 485.369 380.763 484.821 381.669C484.363 382.391 483.537 382.754 482.621 382.933C481.157 383.297 478.595 383.297 476.667 382.48C474.196 381.485 470.623 378.587 469.249 376.412C468.333 374.874 468.061 373.062 468.151 371.608C468.242 370.433 468.7 369.164 469.525 368.437C470.532 367.626 472.641 367.262 473.919 367.352C475.021 367.442 476.209 367.895 476.944 368.532C477.679 369.164 478.227 369.891 478.499 370.976C479.053 372.878 478.957 377.318 478.409 379.22C478.041 380.399 477.679 381.216 476.853 381.848C475.847 382.664 473.557 383.207 472.183 383.028C470.99 382.844 470.074 382.211 469.158 381.216C467.965 379.857 466.41 376.686 466.319 375.232C466.319 374.421 466.591 373.784 467.049 373.331C467.507 372.878 468.242 372.425 468.977 372.425C469.797 372.425 471.815 374.057 471.815 374.057" fill="white"/>
</mask>
<g mask="url(#mask6_1_4)">
<path d="M462.655 363.728H489.219V386.378H462.655V363.728Z" fill="#173358"/>
</g>
</g>
</g>
<rect x="0.5" y="0.5" width="800" height="1020" stroke="#173358"/>
<defs>
<clipPath id="clip0_1_4">
<rect width="458" height="453" fill="white" transform="translate(171 284)"/>
</clipPath>
</defs>
</svg>
